<?xml version="1.0" encoding="utf-8"?>
<!-- Generator: Adobe Illustrator 26.0.3, SVG Export Plug-In . SVG Version: 6.00 Build 0)  -->
<svg version="1.1" id="Layer_1" xmlns="http://www.w3.org/2000/svg" xmlns:xlink="http://www.w3.org/1999/xlink" x="0px" y="0px"
	 viewBox="0 0 40 15" style="enable-background:new 0 0 40 15;" xml:space="preserve">
<style type="text/css">
	.st0{fill:#FFFFFF;}
</style>
<path d="M32.5,15h-25C3.4,15,0,11.6,0,7.5l0,0C0,3.4,3.4,0,7.5,0h25C36.6,0,40,3.4,40,7.5l0,0C40,11.6,36.6,15,32.5,15z"/>
<path class="st0" d="M32.5,13.5h-25c-3.2,0-6-2.8-6-6s2.8-6,6-6h25c3.2,0,6,2.8,6,6S35.8,13.5,32.5,13.5z M7.5,2.5c-2.7,0-5,2.3-5,5
	s2.3,5,5,5h25c2.7,0,5-2.3,5-5s-2.3-5-5-5H7.5z"/>
<g>
	<path class="st0" d="M6.5,5.5c0.9,0,1.6,0.5,1.9,1.4h-1C7.1,6.5,6.8,6.4,6.4,6.4c-0.6,0-1,0.4-1,1.1c0,0.7,0.4,1.1,1,1.1
		c0.4,0,0.7-0.2,0.8-0.5h1C8.1,9,7.4,9.5,6.5,9.5c-1.2,0-2-0.8-2-2C4.5,6.3,5.3,5.5,6.5,5.5z"/>
	<path class="st0" d="M10.3,9.5c-0.9,0-1.6-0.6-1.6-1.6s0.7-1.6,1.6-1.6c0.9,0,1.6,0.6,1.6,1.6S11.2,9.5,10.3,9.5z M10.3,8.7
		c0.3,0,0.7-0.3,0.7-0.8c0-0.5-0.3-0.8-0.6-0.8c-0.3,0-0.6,0.2-0.6,0.8C9.7,8.4,10,8.7,10.3,8.7z"/>
	<path class="st0" d="M14.6,7.8c0-0.4-0.2-0.7-0.6-0.7s-0.6,0.2-0.6,0.7v1.7h-1V6.3h1v0.4c0.2-0.3,0.5-0.4,0.9-0.4
		c0.7,0,1.2,0.5,1.2,1.3v1.8h-0.9V7.8z"/>
	<path class="st0" d="M16.4,7.1H16V6.3h0.4V5.6h1v0.8h0.6v0.8h-0.6v1.2c0,0.2,0.1,0.3,0.3,0.3h0.3v0.8h-0.5c-0.6,0-1.1-0.3-1.1-1.1
		V7.1z"/>
	<path class="st0" d="M19.6,6.3c0.5,0,0.8,0.2,1,0.5V6.3h1v3.1h-1V9c-0.2,0.3-0.5,0.5-1,0.5c-0.8,0-1.4-0.6-1.4-1.6
		S18.9,6.3,19.6,6.3z M19.9,7.1c-0.4,0-0.7,0.3-0.7,0.8s0.3,0.8,0.7,0.8c0.4,0,0.7-0.3,0.7-0.8S20.3,7.1,19.9,7.1z"/>
	<path class="st0" d="M23.6,6.3c0.8,0,1.3,0.4,1.5,1.2h-1c-0.1-0.2-0.2-0.4-0.5-0.4c-0.3,0-0.6,0.3-0.6,0.8s0.2,0.8,0.6,0.8
		c0.3,0,0.4-0.1,0.5-0.4h1c-0.2,0.7-0.7,1.2-1.5,1.2c-0.9,0-1.6-0.6-1.6-1.6C22.1,6.9,22.7,6.3,23.6,6.3z"/>
	<path class="st0" d="M25.8,7.1h-0.4V6.3h0.4V5.6h1v0.8h0.6v0.8h-0.6v1.2c0,0.2,0.1,0.3,0.3,0.3h0.3v0.8h-0.5
		c-0.6,0-1.1-0.3-1.1-1.1V7.1z"/>
	<path class="st0" d="M29,5.5h1v2.3c0,0.5,0.2,0.7,0.7,0.7c0.5,0,0.7-0.3,0.7-0.7V5.5h1v2.3c0,1.1-0.8,1.6-1.7,1.6
		C29.7,9.5,29,9,29,7.9V5.5z"/>
	<path class="st0" d="M34.3,9.5c-0.8,0-1.4-0.5-1.4-1.1h0.9c0,0.2,0.2,0.4,0.5,0.4c0.2,0,0.4-0.1,0.4-0.3c0-0.5-1.7-0.1-1.7-1.3
		c0-0.5,0.5-1,1.3-1c0.8,0,1.2,0.4,1.3,1.1h-0.9c0-0.2-0.2-0.4-0.5-0.4c-0.2,0-0.3,0.1-0.3,0.2c0,0.5,1.7,0.1,1.7,1.3
		C35.5,9.1,35,9.5,34.3,9.5z"/>
</g>
</svg>
