<?xml version="1.0" encoding="utf-8"?>
<!-- Generator: Adobe Illustrator 26.0.3, SVG Export Plug-In . SVG Version: 6.00 Build 0)  -->
<svg version="1.1" id="Layer_1" xmlns="http://www.w3.org/2000/svg" xmlns:xlink="http://www.w3.org/1999/xlink" x="0px" y="0px"
	 viewBox="0 0 1440 1156.3" style="enable-background:new 0 0 1440 1156.3;" xml:space="preserve">
<style type="text/css">
	.st0{fill:#FFFFFF;}
</style>
<g>
	<g>
		<g>
			<g>
				<path class="st0" d="M916,252.4v104.3l-83.8,69.1l-64.8,53.4l-63.3,50.2l-63.3-50.2l-64.8-53.4v392.6
					c-30.1-11.4-58.2-26.8-83.8-45.3V252.4l83.8,69.1l128,105.5l128.1-105.5L916,252.4z"/>
			</g>
		</g>
		<g>
			<g>
				<path class="st0" d="M916,386.9V773c-14.8,10.8-30.5,20.4-46.8,28.9c-12,6.2-24.3,11.7-37,16.5v-258l-64.8,53.4l-63.3,52.2
					l-63.3-52.2l-47.1-38.8V470.5l110.4,91L832.2,456L916,386.9z"/>
			</g>
		</g>
	</g>
	<path class="st0" d="M996.5,698.4l0-2.3C998.1,694.9,999.2,694.4,996.5,698.4z"/>
	<path class="st0" d="M1030.5,648.4c1.9-2,4.1-3.8,6.3-5.3C1033.5,648.1,1030.9,649.8,1030.5,648.4z"/>
	<path class="st0" d="M511.1,204.4l-1.8,1.3C510,205,510.6,204.6,511.1,204.4z"/>
	<path class="st0" d="M897.2,206.4c0.1,0,0.2-0.1,0.2-0.2C897.4,206.2,897.3,206.3,897.2,206.4z"/>
	<path class="st0" d="M994.4,666.2l-0.1,1c3.4-4.7,6.3-9.8,9.4-14.7C1000.6,657.1,997.7,661.8,994.4,666.2z"/>
	<path class="st0" d="M602.1,156.7l0.6,4.3c2.4-1,5-1.7,7.5-2.6C607.5,157.9,604.8,157.2,602.1,156.7z"/>
	<path class="st0" d="M608.9,151.8c0.3,0.9,2.1,1.2,4.6,1.1C612.6,152.1,611.4,151.5,608.9,151.8z"/>
	<path class="st0" d="M634.6,145.8c-6.1,0.7-10.7,3.1-13.6,4.1c4.1-0.5,8.6-2.9,10.2-1.2c-3.2,1.3-6.5,2.3-9.6,3
		c-3.1,0.6-5.9,1.2-8.1,1.2c2.6,2.4,2.8,5.9,20-0.1C633.6,149.7,628.7,150.9,634.6,145.8z"/>
	<path class="st0" d="M1046.3,384.4c0.6,3.7,0.8,7.5,1.2,11.2c0.3,3.7,0.8,7.5,0.9,11.2c0.6-3.1,1-6.1,1.5-9.2
		C1048.7,393.2,1047.7,388.7,1046.3,384.4z"/>
	<path class="st0" d="M993.6,274.6c0.5,1,1.4,2.5,2.9,4.7C995.8,277.9,994.8,276.3,993.6,274.6z"/>
	<path class="st0" d="M995.4,272.2l3.1,2.9l-6.3-9.9l3.2,5.6c-0.5,1-3.1-1.6-5.7-4.9c-1.3-1.7-2.6-3.5-3.7-5.1
		c-1.1-1.6-2-2.9-2.3-3.7c-0.8,1.2,0.7,3.7,2.7,7c2,3.2,4.8,7,7.2,10.5C992.2,271.8,994.6,272.7,995.4,272.2z"/>
	<path class="st0" d="M983.6,236.6l-1.1-0.4l1.9,2.7l1.8,2.8l3.6,5.6l1,0.5C988.5,244,986.2,240.2,983.6,236.6z"/>
	<path class="st0" d="M973.7,673.7c0.4,0.7-0.1,1.9-1,3.4C972.5,676.7,972.7,675.8,973.7,673.7z"/>
	<path class="st0" d="M954.5,695.1c-0.2,0.3-0.5,0.5-0.7,0.8c-0.2,0.1-0.5,0.3-0.8,0.5L954.5,695.1z"/>
	<path class="st0" d="M454,241.6c0.8-0.7,2.1-1.8,3.1-2.7C454.4,241.8,453.2,243.3,454,241.6z M488,209.7c-3.3,2.2-7.4,5.1-11.2,8.8
		c-1.9,1.8-3.9,3.7-5.8,5.5c-1.9,1.9-3.8,3.7-5.5,5.6c-3.4,3.7-6.4,7-8.5,9.3c2.8-2.2,5.9-4.8,9-7.7c0.8-0.7,1.6-1.4,2.4-2.2
		c0.8-0.7,1.7-1.4,2.6-2.1c1.7-1.4,3.4-2.9,5.2-4.4c1.7-1.5,3.4-3,5.1-4.4c1.7-1.4,3.5-2.8,5.1-4.1c3.3-2.7,6.4-5.2,9.2-7.5
		C494.1,206.3,491.4,207.5,488,209.7z M453.4,232.9c1.8-1.1,3.4-2.4,6.7-6.6l-6.9,5.8l-3.4,2.9l-3.3,3.1
		C449.8,234.8,451.7,234,453.4,232.9z M447.2,244.2c2.6-1.9,5-3.9,7.6-5.8l-0.6-1.9C451.8,239,449.6,241.6,447.2,244.2z
		 M789.2,795.9c-0.5,1.2,0.7,1.8,2.6,2L789.2,795.9z M764.1,804.6c-2.3,0.5-4.5,1.1-6.8,1.5C759.6,805.9,762,805.2,764.1,804.6z
		 M396.7,610.3c-0.2-2.5-1.1-5.8-4.1-11.4c0.5,2.3,1,5,1.7,8c0.3,1.5,0.6,3,0.9,4.6c0.4,1.6,0.8,3.2,1.2,4.8
		C396.4,614.2,397,612.7,396.7,610.3z M724.1,811.6c1.9,0.2,3.8,0.4,5.7,0.5c0.1-0.1,0.3-0.1,0.4-0.2
		C729,811.3,727.1,811.3,724.1,811.6z M795.4,828.8c0.8-0.1,1.7-0.3,2.6-0.5c0.9-0.3,1.8-0.6,2.8-0.9c-3.4,0.7-6.5,1.2-9.7,1.7
		C792.3,829.2,793.8,829.1,795.4,828.8z M397.8,621.7c-0.5-1.8-0.9-3.7-1.4-5.5C396.4,617.7,396.7,619.3,397.8,621.7z M420.4,285.5
		c1.5-0.3,2.9-0.9,6.2-5.5C424.5,281.2,422.5,283.1,420.4,285.5z M455.9,706.8c-1.7-2.2-4-4.6-6.5-7.2c-2.4-2.7-4.9-5.6-7.4-8.5
		c-5.1-5.7-9.1-11.8-10.7-16.3l4.2,6c1.4,2,2.8,4,4.4,5.9l9.1,11.5c0.6-0.6,0.8-1.2,0.7-2C450.3,699.9,460.5,711.6,455.9,706.8z
		 M469.8,713.9v6c-0.5-0.8-1-1.6-1.5-2.4c-1.8-2.9-4.1-5.8-7-9.5c-2.8-3.7-6.3-7.8-10.7-13c-0.9-0.1-1.1,0.3-1,1.1
		c-0.5-3.5-8.4-8.5-9.5-13.1c4,1.8,7.8,6.5,11.6,11.7c2,2.6,4.1,5.2,6.3,7.7c2.2,2.5,4.4,4.8,6.9,6.5c-0.4-0.5-0.8-1-1.2-1.6
		C466.1,709.9,468.1,712.1,469.8,713.9z M469.8,731.7v13.7c-0.9-1-1.7-2.1-2.5-3.1c-1.1-0.3-2.6-0.4-4.7-1c-2.1-0.6-4.7-1.6-7.7-3.9
		c0.6-0.7-0.8-2.5-3.5-5.1c-2.6-2.5-6.6-5.7-10.4-9.6c-2-1.9-4-3.9-6.1-5.9c-1-1-2-2.1-3-3.1c-1-1-1.9-2.1-2.8-3.2
		c-3.5-4.3-6.5-8.5-8.1-12.1c-2.1-1,3.6,5.5-0.8,2.2c-11.7-15.5-24-36.3-34.6-58.8c-10.6-22.5-19.4-46.6-26.8-68.4
		c0.8-0.7,1.2-1.8,1.4-3.4c0.3-1.6,0.4-3.5,0.3-5.8c-0.1-2.3-0.3-4.9-0.7-7.7c-0.2-1.4-0.4-2.9-0.6-4.4c-0.2-1.5-0.4-3.1-0.5-4.7
		c-0.4-3.2-0.8-6.6-1.3-10c-0.5-3.4-0.6-7-1-10.5c-0.2-3.5-0.6-7-0.6-10.4c0-3.4,0.1-6.6,0.2-9.7c-4.8-5.7-1.2,13.9-3.2,20.8
		c-0.8-13.8-6-2.2-4.7-27.2c-0.7,1.1-1.3,0.2-0.8,5.4c-0.8-6.9,0.8-6.2,1.9-6.5c1.2-0.3,2.2-1.5,1.1-12l-3.1-0.7
		c1.1-4.4,2.7-8.8,4-13.1c-0.6-21.6,1.7-41.7,5.2-60.8c3.5-19.2,8.4-37.3,13.3-55.8c1.4-1.9,2.5-0.5,1.6,4.3c1.4-4,3.1-8.2,5.2-12.2
		c2.1-4,4.4-8.2,6.6-12.5c2.4-4.2,4.8-8.4,6.9-12.8l3.1-6.6c1-2.2,1.9-4.5,2.7-6.8l-3.6,4c1.5-3.6,3-6.7,4.4-9.5
		c1.5-2.7,2.9-5,4.3-7.1c2.8-4.2,5.3-7.5,8.3-10.7c3-3.2,6.1-6.5,9.9-10.8c2-2.1,4.1-4.4,6.4-7.1c1.1-1.4,2.4-2.8,3.7-4.4
		c1.3-1.5,2.8-3.1,4.2-4.8c-1.2,1.7-3.1,3.6-4.9,6c-1.8,2.3-3.9,4.8-5.6,7.2c-3.7,4.7-6.2,9.3-5.2,11c0.9-0.3,2.2-1.6,3.7-3.3
		c1.5-1.7,3.3-3.9,5-6.2c1.7-2.3,3.4-4.8,4.7-7.1c1.3-2.3,2.6-4.3,3.2-5.8l1.3,4.8c-2.7,1.2-5.8,4.7-9.3,8.7
		c-3.5,4-6.9,8.8-10.3,12.8c1.8-2.1,2.9-2.3,4.1-2.6c-6.2,6.7-12.8,17.2-19.8,28.2c2.7-5.6,5.9-11,9-16.4c-3.6,2.2-7.8,8.9-11,16
		c-1.6,3.5-3.3,7-4.7,10.1c-1.3,3.1-2.5,5.6-3.7,7.1c3.5,1.4,7.8-8.9,5.8,2.4c-1.4,3.5-2.8,6.3-3.8,8.8c-1,2.4-1.9,4.3-2.8,5.9
		c-1.7,3.1-3.1,4.9-4.6,6.5c-1.5,1.7-3,3.3-5.1,6.1c-1,1.4-2.1,3.1-3.4,5.3c-0.6,1.1-1.3,2.3-2,3.7c-0.6,1.4-1.3,2.9-2.1,4.6
		l0.3-5.3c-1.6,4.5-3.9,8.2-6,12.5c-1.1,2.2-1.9,4.5-2.5,7.2c-0.7,2.7-1.1,5.7-1.3,9.1c2.5,0.4,4.9-9.7,7.6-14.4
		c0.2,1.6-1.8,5.4-4,10.2c-1.1,2.4-2.3,5-3.1,7.7c-0.7,2.7-1.2,5.5-1.1,8.2c4.7-8,12-29.5,17-44.1c0.3,2.1,1.5,2.5,3.7,1
		c-8.8,20.8-16.2,43.6-20.5,67.1c-4.4,23.4-5.5,47.6-2.8,70.1c0.3-3,0.7-5.2,1-6.5c0.3-1.4,0.5-2.1,0.6-2.2c0.3-0.3,0.4,1.6,0.5,4
		c0.3,4.9,1.1,12,3.4,9.1c-1.5,1.8-1.4,6.2-0.5,11.6c0.5,2.7,1,5.7,1.5,8.8c0.2,1.5,0.5,3.1,0.6,4.7c0.2,1.6,0.4,3.1,0.5,4.7
		c2.4,2.1,1.8-4.1,1.7-9.7c-0.2-5.5-0.4-10.4,1.5-5.7c0.3,2.9,0.5,6,0.6,9.1c0.2,3.2,0.5,6.4,0.8,9.8c0.3,3.4,0.4,6.9,0.8,10.4
		c0.4,3.6,0.9,7.2,1.3,10.9c0.4,3.7,1.1,7.4,1.8,11.2c0.4,1.9,0.8,3.8,1.1,5.6c0.4,1.9,0.8,3.8,1.3,5.6c1,3.7,2.1,7.4,3.4,11.1
		l0.9,2.8l1.1,2.7c0.8,1.8,1.5,3.6,2.3,5.3c0.6-2.6-1.9-9.3-1.5-10.6c1.5,4.9,2.9,10.2,4.1,15.8c1.3,5.5,2.9,11,4.4,16.4
		c3.4,10.5,7.6,20,13.8,24.5c-0.8-2.3-1.6-4.8-2.4-7.3c-0.7-2.5-1.5-5.2-2.2-7.8c-0.8-2.6-1.5-5.3-2.3-7.9c-0.8-2.6-1.3-5.3-2-7.9
		c1.1,2.3,2.8,5.4,6.2,9.6c-0.3-2.6-0.6-5.1-0.8-7.7c11.6,21,3.2,19.1,7,32.7c3.6,3.8,7.6,7.2,11.3,10.7c17,21.4,31.9,41.8,41,58
		c0.9,0.9,2.5,2.5,4.4,4.2C467.9,730.1,468.9,730.9,469.8,731.7z M357.6,450.4l1.5-12.4l-3.9,6.1L357.6,450.4z M374.9,582.1
		l-4.1-9.5l1.8,7L374.9,582.1z M442.4,701.6c-1.6-1.8-2.6-2.4-3.5-2.6c-2-1.8-4.7-4.3-7.6-7.4c-2.9-3.1-5.9-6.9-9-10.7
		c-3.2-3.8-6-7.9-8.6-11.8c-2.6-3.9-5-7.5-6.6-10.7c-2.3-2.2-1.8,0.9-0.5,5.2c1.5,4.2,3.9,9.7,4.9,12.2c1-3.1,2.2-3.6,3.6-2.5
		c1.4,1.1,2.8,3.9,4.7,7.2c1.8,3.3,3.9,7.2,6.1,10.9c2.2,3.6,4.9,6.7,7.6,8.6c-0.6-1.6-2.3-4-3.9-6.2c-1.6-2.3-2.8-4.7-2.9-6
		c2.8,2.5,8.3,8.4,11.1,13.1c0.1,1.3,0.8,3,2,4.5c-0.1-1.1-0.9-2.7-2-4.5c-0.2-1.3,0.3-2.1,1.2-2
		C440.4,700.3,441.7,701.3,442.4,701.6z M816.7,795v24.7c-1,0.3-2,0.6-3,0.9c-1.6,0.4-3.2,0.7-4.7,1l0,3.1
		c-3.2,0.5-6.8,1.1-10.3,1.6c-3.5,0.5-7,1-10,2.1c0.1,0.4,1.1,0.6,2.4,0.7c-24,3.9-43.4,6.4-64,7.6c1.3,2,1.4,3.3,13.4,2.9
		c-2.3,0.6-4.9,1-7.7,1.3c-1.4,0.1-2.8,0.3-4.2,0.4c-1.5,0.1-3,0.1-4.5,0.1c-6.2,0-12.9-0.1-19.8-0.9c-3.5-0.3-7.1-0.7-10.7-1
		c-3.6-0.5-7.2-1-10.9-1.4l-5.5-0.6l-5.5-0.7c-3.6-0.5-7.3-0.8-10.9-1l2,1.7c-2.7-0.6-5.3-1.5-7.9-2.3l-7.8-2.4
		c3.1,1.5,0.8,2.1,0.7,3.4c-1.7-0.2-3.5-0.5-5.3-0.7c-1.8-0.3-3.6-0.7-5.4-1c-3.6-0.7-7.2-1.4-10.9-2.1c-3.6-0.8-7.2-1.8-10.7-2.8
		c-3.5-1-7-1.9-10.3-3.1c-4.9-1.7-9.5-3.5-13.5-5.4v-17.4c0.3,0.2,0.7,0.4,1,0.5c2.1,1.7-4.7,0.6,5,5.2c1.7-1-1.2-3-5-5.2
		c-0.2-0.2-0.5-0.4-1-0.7v-4.2l4.8,2.7c3.7,2,7.4,3.8,11.2,5.7l-7.3-4.5c5,2.2,10,4.5,15.2,6.5c-0.7-1.5-4.8-4.3-10.4-7
		c-4-1.8-8.7-3.8-13.5-5.2v-1.8c4.4,1.4,7.5,1.6,7.7-0.5c-3.7-0.9-6.1-1.6-7.7-2.2v-2c2.4,1.2,4.9,2.5,7.5,3.7
		c3.6,1.7,7.5,3.2,11.1,4.7c1.8,0.8,3.6,1.5,5.3,2.2c1.7,0.7,3.4,1.3,5,1.9c-5.4-2.7,7.2-1.4,8.9-1.8c12.5,3.7-0.4,2.6-1.7,4
		c3.4,1.1,7.7,2.7,12,4c2.1,0.7,4.2,1.2,6.2,1.5c2,0.2,3.8,0.1,5.4-0.4c5.1-0.5,2.2-1.6-2.3-3c-4.5-1.4-10.5-3.3-11.8-4.7l9.3,2.9
		c3.1,0.9,6.3,1.7,9.5,2.5c6.3,1.8,12.8,3,19.2,4.4l-1-0.8c1.5,0.6,3.7,1.4,6.1,1.7c2.4,0.4,4.9,0.5,6.9,0.2c2-0.9,0.7-1.6-1.8-2.1
		c-2.5-0.5-6.2-0.5-9.2-0.7c10.3-0.7,19.2,1.5,27.8,2.7c2.2,0.3,4.3,0.7,6.4,0.9c2.1,0.2,4.3,0.2,6.4,0.1c2.1-0.1,4.2-0.3,6.4-0.7
		c2.1-0.4,4.2-1,6.4-2l11.6,0.8c1-0.6,2.8-1.8,0.8-1.8c3.7,0.3,7.5,0.3,11.3,0.5c2.7-0.1,4.8-0.3,6.4-0.5c1.6-0.3,2.7-0.6,3.5-0.9
		c1.6-0.6,1.7-1.3,1.4-2c-0.6-1.4-2.9-2.8,0.4-3.9l-1,0.2c6.2-1.9,10.5-4.5,6-4.3c3.7-0.1,7.3-0.6,10.9-1c3.6-0.5,7.3-0.7,10.9-1.3
		l-0.1-0.1c4.5,0.5,14.8-0.9,23.9-2.7C816,795.2,816.4,795.1,816.7,795z M647.8,815.6c-9-2.2-17.9-4.3-26.7-7.2l0.6,0.7l-1.7-0.5
		l4.4,3.7l-2.7-3.2c4.3,1.2,8.6,2.5,12.9,3.5C639,813.6,643.4,814.7,647.8,815.6z M687.7,830.9c1.5,0.8,3.5,1.5,6.3,2
		c2.8,0.4,6.2,0.4,10.4,0c-6.5-2.1-9.9-3.5-13.9-5.1c-2-0.7-4-1.4-6.7-2.1c-2.6-0.7-5.8-1.3-9.9-2.2l-4.2,2.9c3.1,0.1,4.2-0.7,5.8-1
		c1.7-0.3,4-0.4,9.7,0.9C684.3,827.3,684.8,829.3,687.7,830.9z M719.3,834.3c-2.9-1.1-5.2-1.6-7.1-1.7c-1.9-0.1-3.5,0-4.9,0.4
		c-2.9,0.8-5.4,2.4-9.6,3.3l-3.5,0.3l-3.5,0.1c2.9,0.3,5.2,0.1,7-0.4C705,835.7,712.2,835.3,719.3,834.3z M371.2,602.9
		c-1.3-2.8-3.6-13.4-3.8-8.6c-0.5-2.1-2.2-7.2-0.6-5.6L371.2,602.9z M777.9,829.6c-3.4,0.7-6.7,1.2-9.8,1.4s-5.8,0.3-8,0
		c-4.5-0.5-6.8-1.7-5.5-3.3c2.9-0.3,6.1-0.5,9.4-1c3.3-0.5,6.6-1,9.9-1.5c3.2-0.4,6.3-0.7,9-1c2.7-0.2,5.1-0.2,6.9,0.2
		C782.9,824,794.3,828.5,777.9,829.6z M643.1,820.7c-0.1,0.2-0.1,0.4-0.1,0.6C642.8,821,642.9,820.8,643.1,820.7z M672.6,831.4
		c-4.1-0.9-6.3-1.4-9.3-1.4c-2.7-0.2-8.1-1.6-12.7-3.3c-2.3-0.9-4.4-1.8-5.8-2.8c-1.1-0.8-1.8-1.7-1.8-2.5c0.2,0.4,1,1,2.1,1.5
		c1.8,0.8,4.4,1.9,7.5,2.9c3.1,1,6.6,2.2,10.2,3.1C666.3,829.8,669.7,830.7,672.6,831.4z M676.8,834.9l-10.1-1.3
		c-3.4-0.4-6.7-0.8-10.1-1.4c3.2,0.3,8,0.3,12.1,0.7C672.9,833.2,676.3,833.8,676.8,834.9z M418.7,298.8c2.7-4.3,11.8-13,5.6-9.6
		C420.6,291.7,421.4,294.5,418.7,298.8z M406.9,310.7c-2.7,4.5-5.3,8-7.6,10.3C403.5,316.7,405.5,313.6,406.9,310.7z M413,298.9
		c-1,1.7-1.8,3.2-2.5,4.6c-1.4,2.8-2.3,5-3.5,7.2c1.5-2.3,3.1-4.9,4.8-7.9c0.8-1.5,1.7-3,2.5-4.6c0.4-0.8,0.8-1.6,1.3-2.5
		c0.5-0.8,0.9-1.7,1.4-2.5C415.2,295.2,414,297.2,413,298.9z M369.6,418.8c1-1.4,1.9-2.7,2.7-4.2c0.9-1.5,1.7-3.2,2.5-5.5
		c0.9-2.3,1.6-5.3,2.9-9.1c-0.5,0.5-1.6,2.6-2.5,5.3c-1,2.7-2,5.9-3,8.2c-1.8,4.6-3,5.8-1.3-7.4c0,0-0.3,3-1.1,6.8
		c-0.4,1.9-0.9,3.9-1.4,5.9c-0.5,2-1.1,3.8-1.8,5.3C367.7,421.9,368.7,420.2,369.6,418.8z M361.9,451.5c0.2,2,0.1,4.7,0,7.4
		C362.1,456.6,362.2,454.1,361.9,451.5z M361.6,467.4c-0.1-2,0.1-5.3,0.3-8.5c-1.1,8.2-4.7,15.4-3.1,26.6c1.6-4.3,4-7.5,4.5-16.7
		C362.2,470.3,361.8,469.5,361.6,467.4z M622.2,797.5l-5.2-1.7l-5.1-1.9l-10.1-3.8c2,1.2,4.1,2.3,6.2,3.4
		C612.7,794.9,617.3,796.4,622.2,797.5z M669,808.7l8.4,1c-4.9-0.9-9.9-1.8-14.8-2.8l-2,0.7C663.4,808.1,666.2,808.3,669,808.7z"/>
	<path class="st0" d="M1040.8,450.2c4-2.7,3.9,21.8,4.5,28.9c-1.3-1.2-1.8-3-1.9-5.2c-0.1-2.2-0.1-4.8,0-7.5
		c0.1-2.7,0.2-5.6-0.1-8.4C1043.1,455.1,1042.2,452.5,1040.8,450.2z"/>
	<path class="st0" d="M709.7,146.1c1,0.3,2,0.7,2.8,1.1C710.6,147.6,709.7,147,709.7,146.1z M1076.1,474.7c-0.2,4-0.4,8.1-0.7,12.2
		c-0.1,2.1-0.2,4.1-0.4,6.2c-0.2,2.1-0.3,4.2-0.5,6.3c-0.3,4.3-0.5,8.6-1,13.1c-0.4,4.5-0.6,9.1-0.9,13.9c0-4.8-0.2-9-0.3-12.8
		c-0.1-3.7-0.1-7-0.3-9.9c-0.3-5.8-0.4-10.2-0.5-14.2c-0.2-4-0.4-7.6-0.7-11.9c-0.1-2.1-0.2-4.4-0.5-7c-0.3-2.5-0.6-5.4-1-8.6
		c-0.1,3.8-0.1,7.2-0.2,10.4c-0.1,3.1-0.2,6-0.2,8.6c0,2.6,0.1,5.1,0.1,7.5c0.1,2.4,0,4.6,0,7c0.1,9.2,0.1,18.8-2.7,34.9
		c1.4-5,2.5-10,3.6-15c0.9,4.4,1,9.7,0.1,15.3c-0.8,5.6-1.9,11.4-3.5,16.8c-1.5,5.4-2.7,10.4-3.5,14.5c-0.8,4-1,7.1,0.2,8.8
		c-0.7,2.4-1.5,4.7-2.4,7c-0.9,2.2-1.9,4.4-3,6.6c-2.1,4.3-4.1,8.6-6.5,12.9c-2.4,4.3-4.6,8.8-6.9,13.5c-2.4,4.7-4.6,9.7-6.7,15.3
		c3-2.3,6-4.8,9-7.3c-1.4,3.4-2.7,6.8-4.2,10.2l-4.6,10l-3.5-1.4c-0.8,1.6-1.5,3-2,4.2c-0.6,1.2-1,2.2-1.3,3.2
		c-0.6,1.8-0.8,3-0.6,3.6c-2.7,2.8-5.2,6.2-7.7,9.7c-2.6,3.5-5.2,7.4-7.8,11.4c-1.3,2-2.7,4-4.2,6c-1.4,2-2.9,4-4.5,6
		c-1.6,2-3,4-4.8,5.9c-1.7,1.9-3.5,3.8-5.3,5.5l0.1,3c-1.3,1-3,2.4-3.6,2.6c0.2,2.7-2.8,6.9-5.3,10.8c-2.6,4-5,7.6-4.2,8.9
		c4.8-4.6,15.9-15.5,13.5-15.8c3.2-2.8,4.2-3.1,3.7-1.8c-0.5,1.3-2.3,4.2-5.1,7.5c-2.7,3.4-6.1,7.3-9.2,11c-3.3,3.5-6.3,6.7-8.2,8.8
		c3.4-5,2.3-4.8-0.1-2.7c-2.5,2.1-6.3,6-9,8c-0.4,1.1,1.4-0.3,2.7-0.5c-6.6,8-12.7,11.7-18.2,14.7c-2.7,1.6-5.1,3.1-7.3,5.1
		c-2.1,2.1-4,4.5-5.7,7.9l-5-0.5l-5.5,6.1c-0.5,0.5-1,1.1-1.5,1.6v-26.6c2.5-2,4.7-4.2,7-6.3c2.4-2.3,4.8-4.6,7.2-6.9
		c4.5-4.7,9-9.2,13.5-13.1c4.4-4,8.8-7.3,13.7-9.5c-0.3-4.1-3-2.3-0.3-9.2c-5.2,5.7-9.8,9.5-13.7,12.6c-3.8,3.1-7.5,4.9-11.5,6
		c-3,2.2-5.2,4.1-6.8,5.7c-1.6,1.6-2.8,2.8-3.5,3.9c-1.4,2.2-1.4,3.8-1.4,5.4c-0.1,2-0.3,4.2-4.2,7.5v-5.5c1.2-0.8,2.3-1.6,3.5-2.3
		c-0.5-0.9-1.8-0.9-3.5-0.3v-4.9c3.1-2.9,6.1-6,8.8-9.2c3.4-3.9,6.7-7.5,9.4-11c2.7-3.4,5.1-6.3,7.1-8.3c2.5-1.5,6.4-4.8,10.1-8.3
		c1.9-1.8,3.7-3.6,5.3-5.4c1.5-1.8,2.7-3.6,3.5-5c0.3,0.5,1.7-0.5,3.6-2.1c1.9-1.7,4.4-3.9,6.5-6.1c4.4-4.3,8.6-7.6,8-2.5
		c1.5-2,2.7-3.8,3.6-5.3c0.9-1.5,1.4-2.9,1.9-4.1c0.8-2.4,1.1-4.1,1.4-5.7c0.6-3.3,1.8-6,8.7-13.4c-7,4.6,3.6-12.7-3.4-7
		c0,1.9-1,4.3-2.5,7.1c-0.8,1.3-1.7,2.8-2.7,4.2c-1,1.4-2.2,2.9-3.5,4.3c-2.5,2.9-5.1,5.7-7.6,8.3c-2.6,2.5-5.1,4.7-7,6.4
		c2.3-4.1,4.7-8.2,6.7-12.5l3.2-6.4l1.6-3.2l1.4-3.2c-2.3,6.6,4.5-1,6.8-4.4l-1.2-4.8c2.4,0,4.5-3.1,6.6-7.7c1-2.3,2.2-5,3.2-8
		c0.9-3,1.9-6.2,2.9-9.5c0.5-1.6,1-3.3,1.5-4.9c0.5-1.7,0.9-3.4,1.4-5c1-3.3,2-6.5,3.1-9.5c2-6,4.4-11,7.7-13.8
		c-1.5,4.2-2.2,8.3-3.1,11.8c-0.2,0.9-0.5,1.7-0.8,2.5c-0.3,0.8-0.7,1.5-1.1,2.1c-0.8,1.3-1.8,2.3-3.2,2.9c-1.7,8.2,0,7.9,2.1,6.6
		s4.7-3.7,4.7,0.5c1.5-3,2.9-6.2,4.3-9.6c1.2-3.5,2.4-7.2,3.6-11c0.6-1.9,1.2-3.8,1.7-5.8c0.5-2,1-4,1.5-6c0.9-4,2.1-8.1,2.8-12.3
		c0.8-4.2,1.6-8.3,2.5-12.5c0.7-4.2,1.4-8.3,2.2-12.3c0.9-4,1.5-8,2.3-11.9c0.8-3.9,1.9-7.6,2.8-11.1c-1.3,2.5-2.4,7.1-3.4,11.1
		c-1.1,4-2.2,7.5-3.9,7.9c0.1-5.3,0.8-10.8,1.9-16.4c0.8-5.7,2.1-11.6,3.2-17.6c2.2-12.1,4.6-24.9,5-37.5l-3.8,4.8
		c0.9-10.5,0.4-12.5-0.5-14.7c-1-2.2-2.2-4.5-3.1-15.7c0.6,0.8,2.6,3.6,1.8-1.5c-3.7-18-3.8-1.2-7.1-12.8
		c0.8-11.8-1.1-14.2-3.3-17.2c-1.1-1.5-2.5-3.1-3.8-6.1c-0.7-1.5-1.3-3.3-2-5.7c-0.3-1.2-0.6-2.5-0.9-3.9c-0.3-1.5-0.7-3-1.1-4.8
		l-0.8,2.5c-0.6-2.7-1.3-5.5-2.2-8.4c-0.9-2.9-1.8-5.8-3.1-8.6c-2.5-5.7-5.2-11.6-8.6-17.1c-1.6-2.8-3.3-5.6-4.9-8.4
		c-1.7-2.8-3.6-5.4-5.3-8.1c-1.8-2.6-3.4-5.4-5.1-7.9c-1.8-2.5-3.5-5.1-5.1-7.5c0.9,0.5,3.4,4.8,6,8.4c2.4,3.7,4.9,6.9,6.2,5
		l-3.3-6.8l-3.6-6.7l-3.6-6.7c-1.2-2.2-2.6-4.4-3.8-6.5c-1.9-1-9.3-11.7-6.7-3.7c1.8,3.7,4.6,6.6,6.5,8.8l-3.9-2.1
		c-6.7-12.2-5.3-12.8-1.7-10.5c3.5,2.3,9.3,7.5,10.8,6.4c-9.3-12.1-9.7-18.4-15.8-26.7c-5.8-1.5,8.3,18.4-2.7,10.4
		c-1.8-1.5-3.9-4.3-6.5-7.5c-2.6-3.2-5.4-7.1-8.1-11.2c-2.9-3.9-5.7-8-8-11.7c-0.6-0.9-1.1-1.9-1.7-2.8c-0.5-0.9-1.1-1.7-1.6-2.5
		c-1-1.6-1.8-3-2.4-4.3c-4.2-1-8.8-4.1-13.9-7.7c-2.5-1.8-5.1-3.8-7.6-5.9c-2.5-2.1-5.2-4.1-7.7-6.1c-2.5-2-4.9-3.9-7.1-5.6
		c-2.3-1.6-4.5-3.1-6.4-4.2c-3.6-2.1-6.2-3.1-7.4-2.1c0.1-0.9-2.7-5-8.3-7.6l2.4,3.7c-4.7-2.2-7.9-4.4-10.3-6.3
		c-2.4-1.9-4-3.8-5.3-5.6c-1.3-1.8-2.4-3.5-4-5.2c-1.5-1.6-3.5-2.9-6.6-4.1c-0.5,1.2,2.9,3.5,4,5.8c-3.2-1.5-6.1-3-8.8-4.6
		c-2.7-1.6-5.2-3.3-7.8-4.7c-2.5-1.5-4.9-3.1-7.2-4.7c-2.3-1.6-4.6-3.2-7-4.6c-9.3-5.9-19.2-11.3-33.2-13.4c0.8,1,1.5,2,4.5,2.6
		c0.8,1.1-3.9-0.4-12.3-4.7l10.3,0.4c-2.9-2.9-6.9-5.1-11.5-6.4c-4.6-1.2-9.9-2-15.4-2.5c-5.6-0.3-11.4-0.6-17.2-1
		c-5.9-0.2-11.7-0.9-17.5-2.1c2,1.6,18.8,4.5,9.6,5.1c-3.7-0.5-6.3-1.5-8.4-2.5c-2.2-0.9-3.8-2.1-5.6-3.1c-3.6-1.9-7.6-3.8-16.8-2.1
		c8.1,1.4,5.3,5.2,12.8,6.8c-5.7-0.4-10.7,0.1-14.7,0.2c-4,0.1-7-0.4-9.1-1.9c-3.2,0.3-4.5,1.4-4.7,2.4c-1.9-0.6-4-1-6.3-1.1
		c-1.1-0.1-2.3-0.2-3.5-0.2c-1.2,0-2.4,0.1-3.6,0.2c-4.8,0.4-9.7,1.1-13.5,1.8c0.7,0.4,1.4,0.9,2.1,1.4c-3.7-1.8-7-2.4-10.3-2.6
		c-3.2-0.1-6.4,0.2-9.5,1.2c-3.2,0.9-6.5,2-10.1,3c-0.9,0.3-1.8,0.5-2.8,0.8c-1,0.3-1.9,0.6-2.9,0.8c-2,0.5-4.2,1-6.5,1.4l3.4,1.7
		c-3.9,0.3-9.1,0.1-14.7,1.2c-2.8,0.5-5.8,1.1-8.8,2c-3,0.9-6,2.4-9,4.1l7.5,0.7c-2.8,0.3-6,1.1-9.3,2.2c-1.7,0.5-3.5,1.1-5.2,1.7
		c-1.7,0.7-3.5,1.4-5.3,2.1c-3.5,1.4-7,2.6-10.2,3.6c-3.2,1.1-6.1,1.7-8.6,1.5c-3.3,2.1,11.1,0.9-4.9,7.7
		c-4.3,0.1-17.5,4.1-20.5,8.8c0.6,1.1,3.1,1.5,6.7-1.8c2.5-1.4,0.7-0.9-0.6-1.1l6.2-0.7c-5.7,3.6-8.1,4.6-10.9,5.3
		c-1.4,0.4-2.8,0.8-4.6,1.5c-1.8,0.8-4.1,1.8-7,4c-0.8,1.4,0.5,1.3,2.3,0.9c1.8-0.4,4.3-0.9,5.6-0.8c-16.2,7-31.9,15.3-47.1,24.8
		c-2.1-0.9,2.7-5.8-2.8-4.8l7.2-5.8l3.6-2.9l1.8-1.5l1.9-1.4c2.7-3.8,0.1-3.2-4.1-1.1c-4.1,2.2-9.7,5.9-13.3,7.9l10.3-7.9
		c0.3-0.7-0.2-0.9-1.3-0.3c2.6-2,5.4-3.7,8.2-5.4c-6.2,2.6-8,2.9-7.8,1.7c0.2-1.2,2.5-3.6,4.9-6c4.7-4.8,9.3-9.4-3.7-2.8
		c3.1-1.9,6.7-3.5,10-4.8c3.3-1.2,6.6-1.9,8.8-2.2c11.9-5.9,8-6.2,11.9-9.7l-4.7,1.6l-4.6,1.9l-9.3,3.8c13.7-7.4,12.6-7.7,10.3-7.9
		c-1.2-0.1-2.6-0.1-2.6-1c0-0.8,1.4-2.7,6.2-5.8c12.2-5.2,20.8-11.2,28.1-16.9c7.3-5.4,13.2-10.7,19.8-13c13.3-4.2,11.1-2.4,7.7-0.1
		c-3.4,2.4-7.9,5.3,0.5,3.4c3.6-1.2,5.8-1.8,7.2-2.5s2.1-1.1,2.5-1.7c0.9-1,1.1-2,5.6-3.7c2.6,0.8,5.1,1.6,7.6,2.6
		c16.6-3.3-0.3-4.4,9.5-4.9c12.7-5.8-4.6-0.8-8.8-3.3c1.7,0.1,6.3-0.3,11.2-1.1c4.9-0.7,10.2-1.6,13.2-3.1c-0.4-1.2-18.5,2-7-0.7
		c2.7-0.4,5.2-0.7,7.7-1.1c2.4-0.4,4.8-0.7,7-0.9c4.5-0.5,8.5-1.1,12.3-1.7c3.8-0.6,7.3-0.9,10.7-1.4c3.4-0.4,6.6-1,9.9-1.4
		c12.8-1.4,25.3-3.2,44.8-1.6l-3.3-2.4c4.4,0.8,7.7,1.8,12,1.5l-2.2-1.7c1.4,0.1,4.9,0.7,9.7,1.5c2.4,0.4,5.2,0.8,8.2,1.4
		c3,0.6,6.2,1.3,9.6,2c6.8,1.2,14.1,3.2,21.4,4.8l2.7,0.6c0.9,0.3,1.8,0.5,2.7,0.7c1.8,0.4,3.5,0.9,5.3,1.4c3.5,0.8,6.8,1.7,10,2.4
		c-4-2-8.1-3.9-12.2-5.9l10.9,4.4c3.6,1.6,7.1,3.2,10.6,4.9l-1.3-4.6c1.6,1.6,4.5,3,8.3,4.5c3.7,1.6,8.2,3.4,13.1,5.1
		c9.8,3.7,21.3,8.1,30.9,13.4l1-2.3c1.9,1.2,3.8,2.3,5.7,3.5l5.5,3.8l-3.2-3.7c5.8,3.3,11.7,7.4,17.6,12c3,2.3,6,4.5,9.2,6.5
		c3.1,2.2,6.3,4.2,9.8,5.8c-8.5-4.7-8.3-9.4-6.7-10.4c5.2,4.4,10.4,8.6,15.4,13l7.4,6.8c2.5,2.3,4.9,4.5,7.2,6.9
		c1.7-0.7,13.3,8.1,9.3,2.7l3.4,4c1.6,2.1,3.2,4.2,4.8,6.3l0.5-2.3c3,2.4,6,4.9,9,7.4c2.8,2.6,5.5,5.3,8.2,8
		c5.5,5.3,10.2,11.1,14.9,16.9c2.4,2.9,4.5,5.9,6.7,8.9c2.1,3,4.2,6,6.3,9c2.1,3,3.9,6.2,5.8,9.3c1.9,3.1,3.9,6.1,5.7,9.3
		c7.2,12.6,14.1,25.2,20.7,38.3c1.7,3.3,3.4,6.5,5.2,9.7c1.6,3.3,3.3,6.6,5.1,9.9c0.9,1.6,1.8,3.3,2.7,5c0.9,1.7,1.7,3.4,2.6,5.1
		c1.8,3.4,3.6,6.8,5.6,10.2l0.3-1.3c0.8,3,1.4,6,2,9l1.9,9c0.7,3,1,6,1.5,9l1.4,9c2.2,6.2,6,7.2,9.8,17.5c-1.2-1.1-1.6-0.3-1.4,1.5
		c0.1,1.9,0.6,4.8,1.2,8.1c0.6,3.3,1.3,7,1.6,10.3c0.3,3.3,0.3,6.3-0.3,8.1c2.7,8.2,2.5-0.5,3.6-3.1
		C1076.3,442.5,1076.5,458.5,1076.1,474.7z M599,151.7c-1.3-0.4,0.3-2-3-1.9l-6.1,1.3C582.7,155.2,592.2,153.8,599,151.7z
		 M670,139.9c3.2-0.6,6.3-1.2,8.9-1.9c2,0.4,4.2,0.4,6.6-1l-1.2-0.7c-1,0.5-3,1.1-5.5,1.7c-1.9-0.3-3.7-0.8-5.6-0.2
		C671.2,138.6,670.3,139.3,670,139.9c-2.9,0.5-5.8,1.3-8.4,1.9c-2.5,0.7-4.7,1.3-6,2c-2.8,1.2-2.4,2.4,4,3.3l5.4-1
		c1.8-0.4,3.6-0.7,5.4-0.9c-2.5,0.2-3.5,0.2-4,0.1c-0.5-0.2-0.6-0.5-1.1-0.8c1.9-0.7,3.7-1,5.4-1.1c1.7-0.1,3.3-0.1,4.8,0.1
		c3.1,0.3,5.9,0.8,8.9,0.9C681,143.2,668.3,142.6,670,139.9z M769,122.9c-5.8-1.3-8.1-3-10.6-4.4c-2.5-1.3-5.1-2.6-11.6-2
		c2.4,0.4,4,0.9,5.3,1.6c1.3,0.7,2.2,1.5,3.4,2.2C757.8,121.8,760.9,122.9,769,122.9z M783.5,127.5c-6.2-2-14.6-3.5-16.9-2.7
		C772.8,126.6,773.7,127.7,783.5,127.5z M845.3,166.4c-2.8-1.6-5.7-3-8.6-4.6c-2.9-1.5-5.8-3-8.7-4.4c-3.4,0.4-9.6-3.4-7.4-0.2
		c2.2,0.6,4.6,1.6,6.9,2.7c2.3,1.2,4.6,2.6,6.9,3.8C838.8,166.1,842.8,167.7,845.3,166.4z M946.3,231.4c-3.4-3-6.6-6.4-8.3-9.1
		c-1.5-2.3-2-3.8-0.8-3.3c-6.5-3.2-11-8.4-10.7-3.8c0.4,0.4,1.5,1.3,3,2.7c1.5,1.4,3.3,3.1,5,4.8c3.4,3.5,6.5,7,5.7,8
		C942.3,230.9,944.3,231.1,946.3,231.4z M974.3,265.6c-1.5-0.6-4.2-3.4-7.3-7c-0.8-0.9-1.6-1.9-2.5-2.9c-0.9-1-1.8-1.9-2.8-2.9
		c-1.9-2-3.9-4-5.9-6.1c0.2,1.6,1.4,3.7,3.2,5.9c1.7,2.2,4.1,4.4,6.2,6.6C969.5,263.5,973.9,266.7,974.3,265.6z M1035.5,334.1
		c-1.5-4.2-3.9-10-5.9-13.2c-1.3,2,5.7,15.2,1.2,11.6l-3.1-5.6c2.3,4.1,1.8,6,1.7,8.1c-0.1,1.1,0,2.2,0.6,3.8
		c0.5,1.6,1.5,3.7,3.4,6.5c-1.1-2.5-2.2-5.1-3.4-7.5c1.4,2.2,1.8,2.5,2.1,1.9c0.2-0.6,0.1-2.2,0-3.6c-0.2-2.8,0-5,3.8,2.1
		C1037.3,341.1,1037,338.3,1035.5,334.1z M1048,365.3c0.1,0.9,0.2,1.7,0.3,2.5C1048.3,366.9,1048.2,366.1,1048,365.3
		c-0.4-5.9,1.3-13.6-6.1-21.6c-0.5,4.6,0.7,7.4,2.1,10.4C1045.5,357.1,1047.3,360.2,1048,365.3z M1044.5,507.3l-0.4-1l-2.7,12
		l0.4,1.1L1044.5,507.3z M1011.9,620.6l0.2,5.5l4.2-10.3L1011.9,620.6z M1012.1,647.4c-1.2,2.1-2.2,3.7-3.2,5.2
		c-2.3,2.9-4.2,3.7-6,5.2c-1.9,1.5-3.6,3.9-6.3,9.7c1.3-1.1,2.4-2.8,3.4-4.6c1-1.8,2-3.6,3.2-4.7c1.7,1.8,2.3,0,5.7-5.6
		C1009.9,651.3,1011,649.8,1012.1,647.4z M1025.5,614.8c-1.8-9.4-11.4,16.6-16.8,27.6C1012.5,638.5,1020.1,616.2,1025.5,614.8z
		 M1034.4,636.2c-1.3,0-2,0.9-2.5,2.4c-0.3,0.8-0.5,1.7-0.8,2.7c-0.3,1-0.7,2.1-1.1,3.2l-2.9,5.2c1.4-1.7,2.2-3.4,2.9-5.2
		C1031.6,641.8,1033,639,1034.4,636.2z M1044.2,600.9c0.8-3.1,1.8-5,3.7-9c-2.9,0.4-3.5,3.2-4.2,7.5c-0.4,2.1-0.7,4.6-1.5,7.2
		c-0.7,2.7-2,5.4-3.9,8.1c1.2,0.4,3.4-2.8,5.6-6.7c2.1-3.9,4.2-8.3,5.8-10.2C1051.4,591.6,1046.3,599.3,1044.2,600.9z M1061,492.9
		c-3.2,1.6-2.9-2.5-2.3-8.1c0.7-5.5,2.3-12.5,2.1-16.3c-0.2,4.3-2.1,9.5-3.3,15.5c-0.3,1.5-0.6,3.1-0.8,4.7
		c-0.2,1.7-0.5,3.4-0.7,5.1c-0.3,3.6-0.3,7.4,0.2,11.6l2.2-12.6l0.1,3.1L1061,492.9z M704.1,138.7c-2.2-1.5-4.3-3.1-6.6-4.4
		c2.1,0.1,4.2,0.4,6.2,0.7L704.1,138.7z M724.4,144.2c-1.5,0.1-5.5-0.4-8.7-1c-3.1-0.5-5.5-1.2-3.5-2.2
		C716.3,141.9,720.3,143.1,724.4,144.2z M738.1,145.5c2,0.4,4.3,0.7,8,0.8C743.3,145.9,740.7,145.7,738.1,145.5z M778.2,151.3
		c1.2,0.5,2.4,0.8,11.2,2.2c-3.7-1.1-7.3-2.3-11.1-3.2l-11.2-2.7C775.9,149.9,777,150.8,778.2,151.3z"/>
</g>
<g>
	<path class="st0" d="M158.1,1054.1l66.4-91.2v138.9h-27.3v-56.2l-39.1,54l-39.2-54v56.2H91.6V962.9L158.1,1054.1z"/>
	<path class="st0" d="M332.4,1039c-0.3,6.7-0.8,11.9-1.5,15.6s-2.6,8.5-5.8,14.5l4.5,2.9c1.5,1,3.1,2,4.9,3.1s3.6,2,5.5,2.8
		c2.9,1.2,5.2,2.1,7.1,2.4l-0.1,16.4c-2.6-0.3-5.3-1-8.1-2c-3.5-1.1-6.8-2.6-9.9-4.5c-1.2-0.7-1.5-0.9-1-0.6s0.3,0.2-0.6-0.4
		c-4.4-2.6-7.9-5-10.5-7.2c-3.5,4.2-6.6,7.1-9.3,8.7s-6.7,3.2-12.2,4.7c-6.1,1.7-11.7,2.5-16.8,2.5c-5.5,0-10.6-1-15.4-2.9
		c-5-2-9.3-4.8-13.1-8.4c-3.9-3.7-6.7-7.8-8.6-12.3c-1.9-4.4-2.8-9.3-2.8-14.7h-0.1c0.2-6.6,1.9-12,5.3-16.3
		c3.3-4.3,6.9-8.3,10.6-11.9l0.4-0.4c-0.1,0.1,0.3-0.2,1.3-1.1c-0.3,0.3,0,0.1,0.8-0.6l3.8-3.2l-3-4c-1.9-2.6-3.6-6.1-5.2-10.6
		c-1.5-4.3-2.4-8-2.5-11.3c0-4,0.8-7.7,2.5-11.1c1.5-2.8,3.6-5.6,6.4-8.3c3.1-3.1,7.1-5.8,11.9-7.8c4.6-2,8.8-3,12.5-3
		s7.4,0.7,11,1.9c3.5,1.3,6.8,3.1,9.9,5.6c2.9,2.4,5.4,5.2,7.5,8.5c1.1,1.8,2,3.6,2.7,5.3l-17.2,3.6h-0.1c-1.1-1.7-2.3-3.1-3.5-4.1
		c-1.5-1.2-3.1-2.1-4.9-2.7c-1.8-0.6-3.6-0.9-5.4-0.9c-4,0-7.4,1.1-10.2,3.2c-6,4.6-7.6,10-4.9,16.2c1.2,2.8,3.4,6.6,6.8,11.5
		c3.3,4.9,6,8.5,8,10.9c3.2,4,7.1,8.5,11.7,13.4c4.6,4.9,8.8,9.1,12.7,12.7l5.2,4.7c2.1-2.7,3.3-5.4,3.7-8c0.4-2.7,0.7-6.6,0.9-11.8
		v-0.5L332.4,1039z M297.9,1078.2c2.3-1.2,4.6-3.4,7-6.8c-1-0.8-2.3-1.9-3.9-3.2c-1.6-1.3-2.9-2.4-3.9-3.2
		c-5.7-4.9-10.4-9.4-13.9-13.5s-7.7-9.3-12.4-15.5l-3.5,2.6l-0.5,0.3c-2.9,2.1-5.8,4.7-8.5,7.7c-2.8,3-4.1,7.4-3.9,13.3
		c0,2.9,0.7,5.8,2.2,8.8c1.4,3,3.2,5.6,5.5,7.7c2.1,2,4.9,3.5,8.2,4.4c2.1,0.6,5.3,0.9,9.5,1.1c4.3,0.2,7.5-0.1,9.5-0.7
		C292.7,1080.4,295.6,1079.4,297.9,1078.2z"/>
	<path class="st0" d="M428,1054.1l66.4-91.2v138.9h-27.3v-56.2l-39.1,54l-39.2-54v56.2h-27.3V962.9L428,1054.1z"/>
	<path class="st0" d="M585.8,1046.5v55.3h-14.3V978.5h25.8c9,0,15.7,0.5,20,1.4c4.3,1,8,2.5,11.1,4.7c3.9,2.8,7,6.7,9.2,11.5
		s3.3,10.3,3.3,16.2c0,6-1.1,11.4-3.3,16.2c-2.2,4.9-5.3,8.7-9.2,11.5c-3.1,2.2-6.8,3.8-11.1,4.8c-4.2,1-10.9,1.4-20,1.4h-4.1
		L585.8,1046.5L585.8,1046.5z M585.8,1033.2h7.4c12.6,0,21-1.5,25.4-4.4c4.3-2.9,6.5-8.1,6.5-15.4c0-7.9-2.2-13.4-6.7-16.6
		s-12.9-4.8-25.2-4.8h-7.4V1033.2z"/>
	<path class="st0" d="M690.3,973.7l56,128.1h-15.9l-16-37.8h-48.1l-16,37.8h-15.9L690.3,973.7z M690.3,1006.1l-19.6,45.4H710
		L690.3,1006.1z"/>
	<path class="st0" d="M761,1101.8V978.5h14.6v123.2H761z"/>
	<path class="st0" d="M807.2,1101.8V973.7l90.1,98.5v-93.6h14v128l-90.1-97.4v92.6H807.2z"/>
	<path class="st0" d="M964,1101.8V992.5h-34.8v-14h84.3v14h-34.7v109.2H964z"/>
	<path class="st0" d="M1031.7,1101.8V978.5h14.6v123.2H1031.7z"/>
	<path class="st0" d="M1077.9,1101.8V973.7l90.1,98.5v-93.6h14v128l-90.1-97.4v92.6H1077.9z"/>
	<path class="st0" d="M1280.9,1038.1h50.8v4.1c0,19.4-5.5,34.7-16.5,45.9s-26,16.8-45,16.8c-5.8,0-11.3-0.6-16.5-1.8
		s-10.1-3-14.5-5.4c-10.1-5.6-17.9-13.2-23.4-23s-8.2-20.9-8.2-33.4c0-10.3,1.6-19.5,4.9-27.8s8.2-15.6,14.9-21.8
		c5.6-5.3,12-9.3,19.4-12s15.5-4,24.4-4c11.8,0,22.1,2.2,30.8,6.4c8.7,4.3,15.9,10.8,21.6,19.4l-12.3,9.8
		c-4.4-7.5-10-13.1-16.6-16.8s-14.3-5.6-23.1-5.6c-14.3,0-25.9,4.8-34.8,14.5c-8.9,9.7-13.4,22.3-13.4,37.9
		c0,14.7,4.5,26.8,13.6,36.2c9.1,9.4,20.6,14.1,34.6,14.1c12.3,0,22.6-3.8,30.8-11.2s12.8-17.2,13.7-29.2h-35.2L1280.9,1038.1
		L1280.9,1038.1z"/>
</g>
</svg>
