<?xml version="1.0" encoding="utf-8"?>
<!-- Generator: Adobe Illustrator 26.0.2, SVG Export Plug-In . SVG Version: 6.00 Build 0)  -->
<svg version="1.1" id="Layer_1" xmlns="http://www.w3.org/2000/svg" xmlns:xlink="http://www.w3.org/1999/xlink" x="0px" y="0px"
	 viewBox="0 0 1440 1156.3" style="enable-background:new 0 0 1440 1156.3;" xml:space="preserve">
<style type="text/css">
	.st0{fill:#FF1E00;}
	.st1{fill:#F3573A;}
</style>
<g>
	<g>
		<g>
			<g>
				<path d="M915.97,252.38V356.7l-83.81,69.07l-64.78,53.38l-63.28,50.2l-63.28-50.2l-64.76-53.38v392.59
					c-30.08-11.42-58.22-26.76-83.81-45.35V252.38l83.81,69.09L704.1,426.99l128.06-105.53L915.97,252.38z"/>
			</g>
		</g>
		<g>
			<g>
				<path class="st0" d="M915.97,386.92v386.07c-14.8,10.77-30.45,20.43-46.84,28.87c-11.96,6.17-24.29,11.68-36.97,16.5V560.31
					l-64.78,53.38l-63.28,52.17l-63.28-52.17l-47.11-38.83V470.53l110.39,90.98l128.06-105.53L915.97,386.92z"/>
			</g>
		</g>
	</g>
	<path class="st1" d="M996.48,698.43l-0.04-2.33C998.14,694.86,999.24,694.43,996.48,698.43z"/>
	<path class="st1" d="M1030.47,648.41c1.95-2.02,4.1-3.84,6.28-5.31C1033.49,648.06,1030.93,649.81,1030.47,648.41z"/>
	<path class="st1" d="M511.06,204.37l-1.8,1.27C509.97,205.03,510.56,204.64,511.06,204.37z"/>
	<path class="st1" d="M897.25,206.37c0.12,0,0.2-0.06,0.2-0.2C897.37,206.21,897.31,206.27,897.25,206.37z"/>
	<path class="st1" d="M994.36,666.23l-0.1,1.05c3.4-4.74,6.32-9.78,9.37-14.74C1000.57,657.14,997.72,661.84,994.36,666.23z"/>
	<path class="st1" d="M602.11,156.73l0.61,4.33c2.43-1.01,4.98-1.72,7.47-2.57C607.52,157.9,604.8,157.18,602.11,156.73z"/>
	<path class="st1" d="M608.87,151.77c0.34,0.87,2.07,1.25,4.62,1.15C612.58,152.12,611.36,151.53,608.87,151.77z"/>
	<path class="st1" d="M634.6,145.82c-6.11,0.71-10.69,3.12-13.58,4.07c4.13-0.49,8.62-2.87,10.16-1.17
		c-3.2,1.34-6.54,2.33-9.62,2.98c-3.1,0.59-5.87,1.19-8.06,1.21c2.63,2.35,2.75,5.89,19.98-0.08
		C633.57,149.69,628.67,150.9,634.6,145.82z"/>
	<path class="st1" d="M1046.26,384.39c0.59,3.72,0.85,7.51,1.21,11.24c0.32,3.74,0.75,7.45,0.95,11.19
		c0.61-3.08,0.99-6.13,1.46-9.25C1048.67,393.18,1047.72,388.71,1046.26,384.39z"/>
	<path class="st1" d="M993.59,274.65c0.45,1.01,1.42,2.45,2.87,4.7C995.75,277.87,994.78,276.33,993.59,274.65z"/>
	<path class="st1" d="M995.39,272.2l3.12,2.94l-6.32-9.86l3.16,5.57c-0.47,1.05-3.06-1.6-5.67-4.9c-1.3-1.66-2.59-3.5-3.68-5.08
		c-1.13-1.56-2-2.9-2.31-3.7c-0.77,1.25,0.73,3.74,2.73,7c2.02,3.22,4.82,7.02,7.17,10.47C992.25,271.76,994.64,272.73,995.39,272.2
		z"/>
	<path class="st1" d="M983.59,236.59l-1.09-0.45l1.94,2.69l1.82,2.81l3.6,5.57l1.03,0.47C988.45,244,986.18,240.18,983.59,236.59z"
		/>
	<path class="st1" d="M973.67,673.71c0.36,0.67-0.12,1.91-0.96,3.44C972.52,676.74,972.68,675.82,973.67,673.71z"/>
	<path class="st1" d="M954.54,695.09c-0.25,0.27-0.51,0.55-0.74,0.79c-0.22,0.14-0.53,0.34-0.78,0.51L954.54,695.09z"/>
	<path d="M453.95,241.63c0.84-0.69,2.07-1.84,3.15-2.67C454.43,241.8,453.25,243.28,453.95,241.63z M488.05,209.71
		c-3.3,2.23-7.41,5.15-11.21,8.83c-1.94,1.79-3.9,3.66-5.82,5.52c-1.91,1.87-3.83,3.67-5.47,5.57c-3.36,3.7-6.35,7.01-8.46,9.33
		c2.79-2.19,5.86-4.81,9.05-7.66c0.79-0.72,1.6-1.44,2.41-2.18c0.84-0.7,1.7-1.41,2.56-2.13c1.7-1.45,3.43-2.92,5.16-4.39
		c1.71-1.49,3.42-2.98,5.1-4.45c1.7-1.44,3.46-2.78,5.11-4.14c3.32-2.7,6.44-5.24,9.16-7.46
		C494.1,206.28,491.39,207.53,488.05,209.71z M453.44,232.94c1.75-1.09,3.42-2.42,6.67-6.58l-6.85,5.81l-3.43,2.92l-3.28,3.08
		C449.84,234.82,451.7,234.03,453.44,232.94z M447.24,244.19c2.56-1.93,5.04-3.93,7.64-5.78l-0.62-1.88
		C451.8,238.96,449.59,241.64,447.24,244.19z M789.22,795.88c-0.53,1.23,0.73,1.81,2.6,2.03L789.22,795.88z M764.09,804.56
		c-2.26,0.47-4.51,1.09-6.79,1.45C759.6,805.86,761.96,805.18,764.09,804.56z M396.72,610.27c-0.16-2.46-1.07-5.79-4.07-11.43
		c0.49,2.34,1.05,5.05,1.66,7.99c0.29,1.48,0.6,3.03,0.92,4.61c0.38,1.56,0.78,3.16,1.17,4.78
		C396.42,614.21,396.95,612.69,396.72,610.27z M724.06,811.64c1.91,0.24,3.82,0.44,5.73,0.53c0.12-0.07,0.28-0.12,0.38-0.19
		C729.02,811.34,727.09,811.3,724.06,811.64z M795.41,828.85c0.82-0.12,1.7-0.29,2.61-0.51c0.9-0.26,1.85-0.57,2.82-0.94
		c-3.41,0.73-6.45,1.15-9.65,1.7C792.33,829.16,793.76,829.09,795.41,828.85z M397.75,621.74c-0.45-1.85-0.9-3.68-1.35-5.52
		C396.39,617.67,396.68,619.33,397.75,621.74z M420.42,285.47c1.49-0.29,2.92-0.92,6.2-5.49
		C424.54,281.16,422.55,283.14,420.42,285.47z M455.85,706.82c-1.74-2.19-3.99-4.64-6.48-7.25c-2.41-2.67-4.92-5.59-7.39-8.46
		c-5.06-5.65-9.15-11.78-10.69-16.32l4.23,5.95c1.42,1.98,2.79,3.99,4.35,5.87l9.07,11.46c0.61-0.59,0.81-1.24,0.71-1.96
		C450.3,699.89,460.51,711.61,455.85,706.82z M469.82,713.86v6.03c-0.47-0.79-0.97-1.6-1.5-2.41c-1.8-2.89-4.13-5.83-6.96-9.49
		c-2.75-3.72-6.3-7.85-10.69-12.98c-0.89-0.1-1.15,0.34-1.03,1.11c-0.49-3.54-8.4-8.5-9.49-13.12c4.05,1.8,7.75,6.46,11.58,11.7
		c1.98,2.59,4.13,5.18,6.3,7.67c2.21,2.45,4.43,4.82,6.92,6.52c-0.4-0.51-0.83-1.03-1.19-1.58
		C466.13,709.93,468.12,712.06,469.82,713.86z M469.82,731.68v13.68c-0.87-1.05-1.68-2.09-2.47-3.12c-1.07-0.28-2.65-0.43-4.72-1.03
		c-2.08-0.63-4.74-1.62-7.69-3.91c0.61-0.73-0.83-2.53-3.46-5.06c-2.61-2.55-6.56-5.71-10.43-9.58c-2-1.9-4.05-3.89-6.09-5.93
		c-1.01-1.03-2.02-2.06-3-3.08c-0.97-1.05-1.86-2.13-2.75-3.2c-3.54-4.29-6.5-8.5-8.08-12.11c-2.09-0.97,3.56,5.53-0.79,2.21
		c-11.68-15.55-24.05-36.3-34.56-58.81c-10.63-22.49-19.41-46.6-26.84-68.4c0.75-0.67,1.23-1.84,1.44-3.38
		c0.26-1.56,0.38-3.54,0.28-5.81c-0.08-2.29-0.32-4.88-0.67-7.69c-0.2-1.42-0.4-2.89-0.61-4.41c-0.18-1.52-0.36-3.1-0.53-4.72
		c-0.42-3.22-0.83-6.6-1.28-10.04c-0.51-3.44-0.65-7-0.97-10.47c-0.24-3.52-0.57-6.98-0.61-10.36c0-3.38,0.06-6.64,0.24-9.68
		c-4.8-5.73-1.21,13.87-3.22,20.77c-0.83-13.77-5.99-2.21-4.66-27.21c-0.71,1.13-1.3,0.22-0.83,5.43c-0.77-6.86,0.79-6.21,1.92-6.48
		c1.19-0.28,2.19-1.46,1.13-12l-3.08-0.73c1.15-4.41,2.67-8.77,3.99-13.06c-0.65-21.58,1.68-41.7,5.16-60.83
		c3.46-19.17,8.38-37.31,13.34-55.75c1.4-1.92,2.45-0.47,1.62,4.33c1.44-4.01,3.06-8.16,5.2-12.25c2.15-4.05,4.37-8.22,6.62-12.47
		c2.37-4.17,4.76-8.38,6.86-12.77l3.12-6.58c0.99-2.21,1.9-4.49,2.71-6.8l-3.58,4.05c1.54-3.6,3-6.72,4.37-9.49
		c1.46-2.71,2.92-5.02,4.31-7.13c2.81-4.17,5.3-7.51,8.34-10.69c3-3.18,6.09-6.52,9.9-10.77c1.98-2.07,4.09-4.41,6.44-7.11
		c1.15-1.36,2.37-2.81,3.68-4.35c1.28-1.54,2.77-3.1,4.25-4.84c-1.23,1.68-3.14,3.64-4.94,5.99c-1.84,2.31-3.85,4.8-5.65,7.19
		c-3.72,4.7-6.19,9.29-5.24,11.01c0.91-0.34,2.21-1.56,3.68-3.32c1.46-1.74,3.28-3.87,4.98-6.23c1.7-2.33,3.36-4.82,4.74-7.09
		c1.34-2.33,2.65-4.27,3.24-5.77l1.32,4.78c-2.69,1.23-5.77,4.7-9.27,8.7c-3.54,3.95-6.94,8.79-10.32,12.79
		c1.8-2.13,2.91-2.29,4.09-2.63c-6.17,6.74-12.75,17.17-19.82,28.22c2.71-5.61,5.93-10.97,9.01-16.38
		c-3.58,2.23-7.81,8.85-11.01,15.97c-1.64,3.52-3.32,7.02-4.68,10.08c-1.32,3.08-2.55,5.65-3.68,7.13c3.54,1.4,7.79-8.93,5.83,2.41
		c-1.42,3.54-2.81,6.34-3.79,8.77c-1.01,2.43-1.92,4.33-2.75,5.89c-1.68,3.12-3.1,4.88-4.64,6.54c-1.5,1.68-3.04,3.3-5.08,6.13
		c-1.01,1.4-2.15,3.12-3.44,5.34c-0.61,1.11-1.34,2.31-2.02,3.7c-0.65,1.38-1.34,2.9-2.09,4.6l0.28-5.3
		c-1.6,4.45-3.89,8.18-5.97,12.55c-1.07,2.17-1.9,4.55-2.55,7.23c-0.67,2.67-1.13,5.67-1.26,9.09c2.53,0.42,4.92-9.74,7.57-14.43
		c0.22,1.58-1.8,5.4-4.05,10.16c-1.11,2.39-2.27,5.02-3.08,7.71c-0.73,2.73-1.19,5.51-1.07,8.16c4.74-7.96,11.96-29.5,17.02-44.09
		c0.3,2.13,1.5,2.53,3.66,0.97c-8.75,20.83-16.2,43.59-20.55,67.09c-4.43,23.44-5.53,47.59-2.83,70.14
		c0.26-3.02,0.73-5.16,0.97-6.52c0.28-1.4,0.47-2.06,0.63-2.17c0.3-0.26,0.38,1.6,0.49,4.03c0.3,4.86,1.15,12,3.36,9.07
		c-1.54,1.8-1.36,6.17-0.45,11.6c0.47,2.71,1.05,5.69,1.52,8.77c0.24,1.54,0.45,3.1,0.61,4.68c0.16,1.58,0.4,3.14,0.49,4.7
		c2.35,2.06,1.76-4.11,1.7-9.68c-0.18-5.55-0.42-10.39,1.52-5.65c0.3,2.89,0.49,5.95,0.65,9.11c0.16,3.18,0.53,6.44,0.75,9.84
		c0.3,3.36,0.36,6.9,0.81,10.43c0.41,3.56,0.85,7.19,1.26,10.87c0.38,3.74,1.15,7.41,1.84,11.17c0.38,1.86,0.75,3.75,1.13,5.63
		c0.38,1.9,0.79,3.77,1.32,5.63c1.05,3.72,2.15,7.43,3.36,11.13l0.93,2.75l1.09,2.69c0.75,1.78,1.52,3.56,2.31,5.32
		c0.63-2.57-1.94-9.27-1.48-10.57c1.48,4.92,2.91,10.24,4.13,15.77c1.28,5.51,2.89,11.01,4.41,16.36
		c3.42,10.51,7.57,20.02,13.79,24.54c-0.77-2.33-1.56-4.78-2.37-7.29c-0.73-2.55-1.46-5.16-2.21-7.81c-0.75-2.61-1.5-5.26-2.27-7.9
		c-0.77-2.61-1.3-5.32-1.96-7.88c1.07,2.33,2.77,5.41,6.24,9.6c-0.28-2.57-0.65-5.06-0.77-7.65c11.62,20.99,3.18,19.09,7.04,32.69
		c3.56,3.75,7.59,7.15,11.34,10.65c17.02,21.44,31.9,41.84,41.03,58c0.93,0.91,2.53,2.51,4.37,4.25
		C467.9,730.08,468.85,730.89,469.82,731.68z M357.63,450.37l1.52-12.41l-3.91,6.11L357.63,450.37z M374.9,582.09l-4.11-9.53
		l1.8,7.02L374.9,582.09z M442.39,701.59c-1.6-1.8-2.65-2.43-3.48-2.57c-2.04-1.76-4.68-4.35-7.65-7.39
		c-2.89-3.12-5.89-6.86-8.99-10.67c-3.16-3.75-5.95-7.94-8.58-11.8c-2.61-3.87-5-7.49-6.58-10.67c-2.33-2.19-1.82,0.89-0.49,5.24
		c1.52,4.23,3.91,9.66,4.86,12.23c1.03-3.12,2.23-3.6,3.58-2.47c1.36,1.13,2.77,3.93,4.66,7.21c1.82,3.3,3.87,7.25,6.13,10.89
		c2.23,3.64,4.94,6.74,7.57,8.62c-0.65-1.58-2.33-3.95-3.89-6.24c-1.6-2.27-2.81-4.66-2.89-5.97c2.79,2.51,8.26,8.42,11.11,13.06
		c0.14,1.3,0.81,3.04,2,4.47c-0.06-1.07-0.89-2.71-2-4.47c-0.16-1.32,0.26-2.11,1.17-2.04
		C440.38,700.28,441.66,701.29,442.39,701.59z M816.74,795.04v24.72c-1.01,0.32-2.02,0.61-3,0.87c-1.62,0.38-3.2,0.69-4.72,0.97
		l0.02,3.12c-3.24,0.51-6.78,1.07-10.28,1.62c-3.5,0.53-6.96,1.03-9.98,2.06c0.14,0.43,1.07,0.63,2.41,0.69
		c-24.03,3.89-43.36,6.42-64.03,7.63c1.3,1.98,1.42,3.26,13.36,2.9c-2.35,0.57-4.94,1.01-7.71,1.34c-1.36,0.14-2.79,0.32-4.25,0.4
		c-1.48,0.06-2.98,0.08-4.53,0.1c-6.17,0.02-12.87-0.14-19.84-0.91c-3.5-0.34-7.06-0.67-10.65-1.01c-3.6-0.49-7.23-0.95-10.89-1.38
		l-5.47-0.57l-5.47-0.73c-3.64-0.45-7.29-0.81-10.91-1.05l1.96,1.72c-2.65-0.63-5.26-1.46-7.87-2.29l-7.81-2.43
		c3.06,1.48,0.77,2.13,0.69,3.4c-1.74-0.22-3.5-0.45-5.3-0.69c-1.76-0.34-3.56-0.65-5.36-0.99c-3.6-0.71-7.23-1.42-10.87-2.13
		c-3.64-0.81-7.19-1.84-10.73-2.79c-3.52-1.01-7-1.9-10.28-3.14c-4.86-1.68-9.45-3.5-13.54-5.41v-17.41
		c0.34,0.18,0.67,0.36,0.99,0.53c2.13,1.68-4.68,0.61,5,5.22c1.66-0.97-1.19-2.98-5-5.22c-0.24-0.18-0.55-0.4-0.99-0.65v-4.25
		l4.82,2.71c3.66,2.04,7.43,3.77,11.19,5.69l-7.27-4.55c5.04,2.15,10.04,4.53,15.18,6.52c-0.73-1.52-4.78-4.33-10.38-6.96
		c-3.99-1.76-8.66-3.75-13.54-5.24v-1.82c4.43,1.4,7.47,1.64,7.67-0.53c-3.7-0.87-6.09-1.58-7.67-2.21v-2.04
		c2.41,1.25,4.94,2.49,7.49,3.74c3.64,1.74,7.45,3.18,11.07,4.74c1.8,0.77,3.58,1.52,5.28,2.25c1.74,0.67,3.4,1.3,4.98,1.92
		c-5.38-2.65,7.17-1.38,8.89-1.84c12.49,3.72-0.43,2.59-1.74,3.97c3.38,1.07,7.73,2.69,12.02,4.05c2.13,0.65,4.25,1.23,6.24,1.5
		c1.98,0.22,3.83,0.1,5.4-0.43c5.08-0.51,2.15-1.64-2.33-2.98c-4.47-1.36-10.45-3.34-11.78-4.7l9.35,2.94
		c3.12,0.91,6.3,1.68,9.47,2.53c6.32,1.8,12.75,3.02,19.21,4.41l-0.97-0.85c1.5,0.61,3.72,1.4,6.11,1.7
		c2.39,0.36,4.9,0.47,6.92,0.22c2-0.91,0.73-1.62-1.76-2.06c-2.49-0.49-6.23-0.55-9.19-0.67c10.34-0.73,19.17,1.46,27.84,2.67
		c2.17,0.34,4.31,0.65,6.44,0.89c2.13,0.18,4.27,0.18,6.4,0.1c2.11-0.08,4.25-0.32,6.38-0.73c2.11-0.42,4.25-1.01,6.36-2.04
		l11.58,0.81c0.99-0.59,2.77-1.78,0.77-1.84c3.73,0.26,7.49,0.32,11.26,0.49c2.67-0.12,4.76-0.28,6.36-0.49
		c1.6-0.3,2.73-0.59,3.52-0.91c1.56-0.63,1.72-1.3,1.42-1.98c-0.59-1.36-2.94-2.77,0.4-3.93l-1.01,0.24
		c6.15-1.88,10.45-4.53,6.01-4.27c3.66-0.14,7.27-0.61,10.91-1.01c3.62-0.45,7.31-0.71,10.93-1.3l-0.12-0.08
		c4.55,0.55,14.76-0.93,23.87-2.69C816.05,795.16,816.41,795.1,816.74,795.04z M647.78,815.59c-8.97-2.15-17.92-4.33-26.66-7.17
		l0.61,0.73l-1.72-0.49l4.41,3.7l-2.69-3.2c4.29,1.23,8.58,2.53,12.94,3.46C639.04,813.58,643.37,814.74,647.78,815.59z
		 M687.68,830.93c1.46,0.81,3.54,1.5,6.3,1.96c2.75,0.36,6.23,0.38,10.43-0.04c-6.48-2.07-9.94-3.5-13.89-5.06
		c-1.96-0.73-4.05-1.4-6.68-2.08c-2.61-0.69-5.79-1.26-9.88-2.25l-4.23,2.87c3.1,0.06,4.17-0.65,5.85-0.99
		c1.7-0.3,4.01-0.38,9.72,0.93C684.26,827.35,684.77,829.33,687.68,830.93z M719.34,834.29c-2.92-1.09-5.2-1.62-7.11-1.74
		c-1.92-0.14-3.46,0-4.9,0.43c-2.89,0.79-5.39,2.43-9.56,3.3l-3.52,0.26l-3.52,0.1c2.87,0.28,5.18,0.06,7.04-0.36
		C704.99,835.73,712.18,835.31,719.34,834.29z M371.17,602.86c-1.26-2.81-3.6-13.36-3.81-8.64c-0.47-2.13-2.25-7.21-0.61-5.57
		L371.17,602.86z M777.91,829.6c-3.4,0.71-6.74,1.19-9.76,1.44s-5.75,0.32-7.98,0c-4.47-0.51-6.84-1.7-5.53-3.28
		c2.89-0.26,6.13-0.47,9.39-1.01c3.28-0.51,6.64-1.03,9.86-1.46c3.22-0.4,6.3-0.71,8.99-0.99c2.71-0.22,5.06-0.18,6.86,0.22
		C782.93,824.05,794.31,828.48,777.91,829.6z M643.07,820.65c-0.08,0.2-0.1,0.4-0.1,0.61C642.84,821.03,642.88,820.81,643.07,820.65
		z M672.6,831.42c-4.09-0.91-6.26-1.38-9.35-1.44c-2.65-0.16-8.08-1.62-12.67-3.32c-2.29-0.87-4.37-1.84-5.77-2.85
		c-1.13-0.83-1.8-1.72-1.84-2.55c0.24,0.42,0.97,0.97,2.08,1.52c1.76,0.85,4.43,1.86,7.55,2.9c3.1,1.01,6.64,2.25,10.16,3.14
		C666.27,829.76,669.73,830.67,672.6,831.42z M676.79,834.88l-10.08-1.26c-3.36-0.43-6.72-0.77-10.06-1.42
		c3.22,0.32,8.04,0.32,12.13,0.69C672.88,833.22,676.29,833.81,676.79,834.88z M418.67,298.79c2.71-4.29,11.83-12.97,5.65-9.57
		C420.61,291.69,421.36,294.53,418.67,298.79z M406.91,310.68c-2.72,4.52-5.31,8.01-7.59,10.27
		C403.47,316.66,405.45,313.65,406.91,310.68z M412.97,298.86c-1.03,1.71-1.83,3.22-2.53,4.59c-1.37,2.76-2.33,4.95-3.53,7.23
		c1.49-2.34,3.15-4.94,4.79-7.88c0.83-1.47,1.67-3.01,2.52-4.64c0.42-0.82,0.84-1.65,1.28-2.49c0.46-0.83,0.93-1.67,1.4-2.53
		C415.2,295.22,414,297.16,412.97,298.86z M369.58,418.77c0.96-1.44,1.85-2.7,2.7-4.18c0.86-1.48,1.68-3.18,2.54-5.5
		c0.88-2.31,1.65-5.26,2.88-9.14c-0.46,0.45-1.56,2.62-2.47,5.33c-0.97,2.7-2.05,5.86-2.97,8.16c-1.84,4.6-3.04,5.78-1.34-7.37
		c0,0-0.34,3.03-1.08,6.78c-0.36,1.88-0.86,3.93-1.41,5.89c-0.48,1.97-1.08,3.84-1.81,5.33
		C367.71,421.85,368.68,420.23,369.58,418.77z M361.87,451.53c0.18,2.05,0.11,4.66-0.02,7.39
		C362.13,456.56,362.23,454.14,361.87,451.53z M361.56,467.44c-0.11-2.04,0.13-5.26,0.29-8.52c-1.14,8.21-4.73,15.36-3.07,26.61
		c1.62-4.28,4.02-7.53,4.53-16.67C362.22,470.33,361.76,469.48,361.56,467.44z M622.15,797.51l-5.16-1.67l-5.08-1.92l-10.13-3.84
		c2.03,1.18,4.1,2.28,6.16,3.43C612.66,794.92,617.34,796.43,622.15,797.51z M668.97,808.65l8.4,0.97
		c-4.93-0.94-9.86-1.8-14.75-2.78l-2.04,0.71C663.36,808.07,666.17,808.3,668.97,808.65z"/>
	<path class="st1" d="M1040.79,450.17c3.99-2.66,3.94,21.77,4.54,28.85c-1.26-1.22-1.77-3.03-1.91-5.22
		c-0.13-2.19-0.11-4.76,0.02-7.48c0.1-2.73,0.2-5.61-0.07-8.4C1043.11,455.13,1042.23,452.46,1040.79,450.17z"/>
	<path class="st0" d="M709.68,146.14c0.98,0.32,2.01,0.68,2.75,1.15C710.64,147.65,709.65,146.99,709.68,146.14z M1076.08,474.68
		c-0.22,4.05-0.43,8.12-0.65,12.25c-0.08,2.07-0.24,4.15-0.45,6.24c-0.16,2.09-0.34,4.21-0.49,6.34c-0.32,4.27-0.53,8.64-0.99,13.1
		c-0.4,4.49-0.59,9.13-0.89,13.93c-0.02-4.82-0.22-9.05-0.28-12.77c-0.08-3.73-0.1-6.98-0.32-9.88c-0.32-5.79-0.45-10.18-0.53-14.19
		c-0.22-4.01-0.43-7.65-0.65-11.92c-0.14-2.11-0.18-4.41-0.47-6.96c-0.3-2.55-0.61-5.38-0.99-8.6c-0.12,3.81-0.14,7.23-0.16,10.36
		c-0.14,3.12-0.18,5.95-0.2,8.58c0,2.65,0.06,5.1,0.12,7.45c0.06,2.37,0,4.64,0.02,6.96c0.1,9.19,0.14,18.77-2.73,34.9
		c1.42-4.96,2.49-9.98,3.58-15.02c0.93,4.39,0.99,9.74,0.12,15.32c-0.83,5.57-1.92,11.44-3.48,16.82
		c-1.48,5.39-2.67,10.43-3.54,14.45c-0.85,4.03-0.97,7.13,0.24,8.77c-0.73,2.37-1.48,4.7-2.37,6.96c-0.95,2.23-1.94,4.43-2.96,6.6
		c-2.09,4.33-4.11,8.62-6.54,12.88c-2.39,4.29-4.6,8.75-6.94,13.46c-2.43,4.66-4.64,9.68-6.74,15.26c3.04-2.33,5.99-4.8,9.01-7.27
		c-1.42,3.38-2.71,6.82-4.23,10.16l-4.64,9.98l-3.54-1.36c-0.81,1.56-1.46,2.96-1.98,4.21c-0.57,1.21-1.03,2.25-1.34,3.16
		c-0.63,1.78-0.79,2.96-0.59,3.56c-2.73,2.81-5.16,6.15-7.67,9.72c-2.61,3.54-5.16,7.41-7.77,11.44c-1.26,2.04-2.69,4.03-4.15,6.03
		c-1.44,2.02-2.92,4.03-4.45,6.05c-1.56,1.98-3.02,4.05-4.78,5.93c-1.72,1.9-3.5,3.75-5.34,5.53l0.12,2.98
		c-1.32,0.95-3,2.37-3.58,2.59c0.18,2.67-2.75,6.88-5.32,10.85c-2.63,3.95-4.96,7.63-4.17,8.89c4.8-4.58,15.93-15.45,13.48-15.83
		c3.22-2.79,4.19-3.1,3.7-1.8c-0.51,1.26-2.35,4.21-5.14,7.55c-2.73,3.38-6.09,7.35-9.21,11.01c-3.3,3.52-6.34,6.74-8.18,8.77
		c3.36-5.04,2.33-4.76-0.12-2.69c-2.47,2.06-6.3,6.01-8.99,8.02c-0.38,1.11,1.36-0.28,2.67-0.53c-6.58,8-12.73,11.74-18.2,14.74
		c-2.71,1.56-5.14,3.06-7.27,5.08c-2.09,2.06-4.01,4.45-5.65,7.89l-5-0.47l-5.45,6.11c-0.49,0.55-1.01,1.11-1.54,1.64v-26.56
		c2.47-1.96,4.68-4.21,6.98-6.34c2.41-2.31,4.8-4.6,7.17-6.86c4.53-4.72,9.01-9.21,13.54-13.06c4.37-4.01,8.85-7.31,13.7-9.49
		c-0.26-4.07-2.98-2.33-0.28-9.25c-5.24,5.69-9.8,9.51-13.7,12.57c-3.85,3.06-7.55,4.88-11.54,6.03c-2.96,2.23-5.16,4.09-6.78,5.69
		c-1.62,1.58-2.79,2.81-3.5,3.93c-1.44,2.21-1.38,3.81-1.44,5.41c-0.1,1.98-0.32,4.17-4.15,7.45v-5.55c1.15-0.81,2.33-1.6,3.54-2.33
		c-0.45-0.91-1.78-0.89-3.54-0.32v-4.88c3.06-2.94,6.13-5.95,8.79-9.15c3.36-3.91,6.7-7.55,9.41-10.97c2.73-3.42,5.14-6.3,7.13-8.34
		c2.55-1.46,6.36-4.78,10.14-8.32c1.86-1.8,3.74-3.62,5.26-5.41c1.5-1.84,2.73-3.58,3.52-5.02c0.34,0.53,1.74-0.45,3.64-2.09
		c1.88-1.66,4.39-3.89,6.52-6.07c4.41-4.27,8.58-7.63,8-2.49c1.54-2.04,2.73-3.79,3.64-5.34c0.91-1.54,1.44-2.92,1.9-4.09
		c0.85-2.37,1.07-4.07,1.38-5.69c0.61-3.26,1.78-5.97,8.7-13.4c-6.98,4.6,3.56-12.69-3.44-6.98c0,1.9-0.95,4.33-2.47,7.06
		c-0.77,1.34-1.68,2.77-2.69,4.23c-1.03,1.44-2.23,2.87-3.46,4.29c-2.47,2.89-5.14,5.73-7.63,8.3c-2.61,2.49-5.1,4.68-7,6.42
		c2.33-4.13,4.72-8.24,6.74-12.53l3.18-6.36l1.58-3.16l1.42-3.24c-2.33,6.58,4.53-1.05,6.84-4.37l-1.15-4.82
		c2.37-0.02,4.45-3.1,6.64-7.73c1.05-2.33,2.19-5.02,3.22-7.98c0.93-3.02,1.94-6.23,2.94-9.53c0.51-1.64,1.03-3.28,1.54-4.94
		c0.47-1.68,0.93-3.36,1.38-5.02c0.95-3.3,1.98-6.5,3.1-9.45c2.04-5.99,4.41-11.01,7.71-13.81c-1.52,4.19-2.17,8.34-3.12,11.84
		c-0.22,0.87-0.47,1.7-0.77,2.47c-0.32,0.75-0.69,1.46-1.11,2.09c-0.81,1.28-1.84,2.29-3.2,2.94c-1.68,8.18,0,7.94,2.13,6.62
		c2.13-1.32,4.72-3.73,4.7,0.47c1.48-2.98,2.92-6.23,4.35-9.64c1.24-3.48,2.43-7.15,3.62-10.95c0.57-1.92,1.23-3.81,1.72-5.81
		c0.47-1.98,0.97-3.97,1.46-6.01c0.91-4.05,2.07-8.12,2.79-12.31c0.79-4.17,1.62-8.34,2.49-12.47c0.69-4.17,1.4-8.3,2.23-12.33
		c0.91-4.03,1.48-8.04,2.35-11.88c0.79-3.85,1.9-7.57,2.75-11.15c-1.3,2.55-2.39,7.07-3.44,11.09c-1.07,4.01-2.17,7.49-3.87,7.9
		c0.08-5.3,0.79-10.77,1.86-16.44c0.75-5.69,2.06-11.58,3.24-17.63c2.21-12.07,4.64-24.88,4.98-37.45l-3.85,4.8
		c0.93-10.47,0.36-12.53-0.49-14.68c-0.97-2.17-2.25-4.49-3.06-15.69c0.61,0.83,2.57,3.6,1.8-1.52c-3.68-17.96-3.83-1.19-7.07-12.83
		c0.75-11.78-1.11-14.25-3.26-17.21c-1.09-1.5-2.49-3.1-3.77-6.11c-0.67-1.48-1.32-3.34-1.96-5.69c-0.32-1.19-0.63-2.49-0.95-3.93
		c-0.32-1.46-0.69-3.04-1.09-4.78l-0.75,2.47c-0.59-2.73-1.34-5.53-2.21-8.36c-0.89-2.85-1.82-5.75-3.14-8.56
		c-2.55-5.67-5.18-11.56-8.6-17.11c-1.64-2.79-3.3-5.59-4.94-8.4c-1.7-2.77-3.58-5.41-5.3-8.1c-1.78-2.65-3.4-5.36-5.14-7.9
		c-1.78-2.55-3.48-5.06-5.06-7.55c0.91,0.53,3.42,4.76,6.01,8.4c2.39,3.74,4.9,6.88,6.19,4.96l-3.26-6.84l-3.6-6.66l-3.58-6.68
		c-1.17-2.23-2.59-4.35-3.85-6.52c-1.9-1.03-9.29-11.7-6.68-3.68c1.82,3.68,4.64,6.56,6.48,8.83l-3.87-2.15
		c-6.72-12.23-5.34-12.79-1.74-10.51c3.54,2.29,9.27,7.49,10.79,6.38c-9.29-12.07-9.68-18.36-15.77-26.72
		c-5.83-1.52,8.28,18.42-2.65,10.39c-1.78-1.46-3.87-4.27-6.52-7.47c-2.59-3.24-5.39-7.15-8.12-11.22
		c-2.89-3.93-5.69-7.98-8.04-11.74c-0.57-0.95-1.13-1.88-1.66-2.75c-0.55-0.87-1.07-1.7-1.56-2.49c-0.99-1.58-1.78-3.02-2.37-4.27
		c-4.21-1.01-8.77-4.15-13.87-7.69c-2.53-1.82-5.06-3.83-7.57-5.93c-2.51-2.09-5.2-4.05-7.67-6.07c-2.49-1.98-4.88-3.93-7.13-5.63
		c-2.33-1.62-4.47-3.06-6.36-4.19c-3.56-2.13-6.19-3.14-7.39-2.15c0.12-0.93-2.73-5.02-8.28-7.59l2.41,3.7
		c-4.74-2.17-7.87-4.41-10.28-6.3c-2.41-1.92-3.97-3.79-5.28-5.59c-1.32-1.82-2.43-3.54-3.95-5.16c-1.5-1.62-3.54-2.92-6.56-4.13
		c-0.45,1.21,2.87,3.52,3.95,5.79c-3.18-1.46-6.09-2.98-8.81-4.55c-2.73-1.56-5.24-3.26-7.75-4.72c-2.49-1.54-4.86-3.1-7.19-4.66
		c-2.31-1.6-4.6-3.18-6.98-4.58c-9.33-5.87-19.17-11.32-33.18-13.42c0.79,1.01,1.52,2.02,4.45,2.63c0.81,1.05-3.91-0.38-12.27-4.72
		l10.32,0.45c-2.94-2.94-6.88-5.06-11.48-6.42c-4.64-1.25-9.88-1.96-15.39-2.51c-5.57-0.3-11.4-0.55-17.23-0.97
		c-5.89-0.2-11.74-0.95-17.47-2.15c2.02,1.6,18.85,4.53,9.64,5.14c-3.7-0.53-6.3-1.5-8.44-2.51c-2.15-0.95-3.81-2.07-5.61-3.06
		c-3.56-1.94-7.63-3.75-16.78-2.09c8.1,1.44,5.34,5.2,12.85,6.8c-5.73-0.43-10.67,0.12-14.66,0.16c-3.97,0.08-7.02-0.4-9.09-1.9
		c-3.16,0.26-4.51,1.42-4.68,2.35c-1.86-0.61-3.99-0.97-6.26-1.15c-1.13-0.1-2.31-0.16-3.5-0.16c-1.19,0.04-2.41,0.12-3.62,0.22
		c-4.84,0.43-9.7,1.13-13.54,1.76c0.69,0.45,1.38,0.87,2.07,1.36c-3.7-1.76-7.05-2.43-10.3-2.59c-3.24-0.1-6.36,0.24-9.53,1.17
		c-3.18,0.87-6.46,1.98-10.12,3c-0.91,0.26-1.84,0.51-2.81,0.77c-0.95,0.28-1.94,0.57-2.94,0.83c-2.02,0.53-4.17,1.01-6.5,1.38
		l3.42,1.66c-3.93,0.28-9.07,0.12-14.68,1.17c-2.81,0.47-5.77,1.13-8.79,2.04c-3.02,0.91-6.05,2.39-9.05,4.09l7.47,0.69
		c-2.75,0.28-5.95,1.11-9.35,2.17c-1.7,0.53-3.48,1.09-5.24,1.72c-1.74,0.69-3.52,1.38-5.28,2.09c-3.5,1.38-7,2.63-10.22,3.56
		c-3.16,1.05-6.11,1.66-8.62,1.52c-3.26,2.15,11.11,0.91-4.86,7.73c-4.29,0.08-17.55,4.11-20.45,8.77c0.61,1.09,3.1,1.48,6.68-1.84
		c2.53-1.44,0.73-0.89-0.57-1.11l6.23-0.67c-5.65,3.64-8.14,4.57-10.91,5.32c-1.36,0.38-2.79,0.75-4.6,1.52
		c-1.8,0.81-4.09,1.84-6.96,3.99c-0.85,1.38,0.49,1.32,2.35,0.95c1.84-0.43,4.35-0.91,5.59-0.75
		c-16.19,6.96-31.94,15.26-47.11,24.78c-2.09-0.95,2.71-5.75-2.79-4.84l7.23-5.79l3.62-2.91l1.8-1.46l1.88-1.36
		c2.73-3.75,0.1-3.18-4.13-1.13c-4.09,2.21-9.74,5.93-13.28,7.9l10.3-7.92c0.32-0.67-0.18-0.85-1.26-0.26
		c2.63-1.96,5.41-3.68,8.18-5.41c-6.15,2.65-7.96,2.92-7.77,1.74c0.16-1.23,2.53-3.62,4.86-6.01c4.66-4.76,9.33-9.37-3.74-2.83
		c3.08-1.9,6.68-3.52,10.04-4.76c3.34-1.25,6.62-1.86,8.85-2.19c11.88-5.93,8.02-6.24,11.94-9.74l-4.72,1.64l-4.64,1.88l-9.33,3.75
		c13.71-7.37,12.59-7.73,10.32-7.92c-1.15-0.1-2.57-0.14-2.57-1.03c0.04-0.81,1.38-2.69,6.21-5.79
		c12.21-5.24,20.81-11.17,28.06-16.86c7.35-5.36,13.2-10.71,19.84-12.98c13.32-4.23,11.07-2.45,7.67-0.1
		c-3.4,2.35-7.9,5.26,0.47,3.4c3.56-1.17,5.77-1.84,7.19-2.47c1.42-0.63,2.06-1.15,2.51-1.66c0.91-1.03,1.11-2,5.57-3.72
		c2.57,0.83,5.08,1.64,7.61,2.63c16.64-3.26-0.28-4.35,9.53-4.9c12.71-5.85-4.58-0.75-8.75-3.34c1.7,0.12,6.32-0.3,11.24-1.13
		c4.94-0.69,10.22-1.62,13.2-3.1c-0.38-1.23-18.46,1.98-6.96-0.73c2.69-0.38,5.24-0.73,7.69-1.07c2.43-0.38,4.76-0.73,7.02-0.95
		c4.47-0.53,8.54-1.09,12.35-1.68c3.79-0.57,7.35-0.89,10.73-1.4c3.4-0.45,6.64-1.03,9.86-1.4c12.85-1.42,25.33-3.18,44.82-1.58
		l-3.3-2.43c4.43,0.79,7.71,1.8,12,1.5l-2.21-1.74c1.4,0.14,4.88,0.69,9.74,1.46c2.43,0.41,5.2,0.83,8.2,1.36
		c2.98,0.61,6.23,1.28,9.62,1.98c6.8,1.25,14.11,3.2,21.36,4.82l2.73,0.59c0.89,0.26,1.78,0.49,2.67,0.73
		c1.78,0.45,3.54,0.91,5.26,1.36c3.48,0.83,6.84,1.66,9.98,2.41c-3.99-2.04-8.08-3.93-12.17-5.93l10.87,4.39
		c3.58,1.58,7.09,3.24,10.63,4.86l-1.28-4.6c1.64,1.56,4.55,3.04,8.28,4.55c3.68,1.64,8.18,3.36,13.14,5.12
		c9.84,3.7,21.32,8.1,30.89,13.44l0.97-2.33c1.9,1.19,3.81,2.29,5.67,3.54l5.51,3.77l-3.16-3.68c5.77,3.26,11.74,7.39,17.63,12.04
		c2.98,2.27,6.05,4.49,9.23,6.52c3.1,2.17,6.32,4.17,9.76,5.83c-8.52-4.72-8.34-9.43-6.66-10.43c5.18,4.37,10.41,8.58,15.43,13.02
		l7.39,6.82c2.45,2.27,4.92,4.51,7.23,6.94c1.66-0.73,13.34,8.06,9.29,2.71l3.38,4.03c1.64,2.09,3.22,4.23,4.82,6.34l0.45-2.31
		c3.04,2.45,6.05,4.94,8.97,7.45c2.85,2.61,5.53,5.34,8.22,8.02c5.47,5.3,10.22,11.13,14.94,16.86c2.39,2.85,4.55,5.85,6.68,8.85
		c2.11,3,4.23,5.99,6.34,8.97c2.06,3.02,3.91,6.17,5.85,9.25c1.9,3.1,3.91,6.11,5.69,9.27c7.19,12.59,14.09,25.22,20.71,38.26
		c1.66,3.26,3.42,6.48,5.16,9.74c1.64,3.32,3.32,6.62,5.08,9.94c0.91,1.64,1.82,3.3,2.71,4.96c0.93,1.66,1.74,3.38,2.63,5.06
		c1.76,3.38,3.62,6.78,5.57,10.2l0.28-1.32c0.83,2.96,1.38,6.01,2.02,8.99l1.88,8.99c0.67,2.96,1.03,6.01,1.54,9.01l1.38,9.01
		c2.25,6.21,5.97,7.19,9.8,17.55c-1.24-1.07-1.56-0.32-1.42,1.52c0.08,1.86,0.59,4.8,1.19,8.12c0.57,3.32,1.32,6.98,1.64,10.3
		c0.26,3.32,0.26,6.26-0.32,8.06c2.69,8.24,2.47-0.53,3.64-3.08C1076.34,442.47,1076.51,458.51,1076.08,474.68z M599.02,151.67
		c-1.26-0.36,0.32-1.98-2.98-1.9l-6.09,1.32C582.68,155.23,592.19,153.78,599.02,151.67z M670.03,139.91
		c3.16-0.61,6.26-1.23,8.91-1.88c2,0.36,4.17,0.38,6.64-0.99l-1.17-0.71c-0.95,0.51-3.04,1.15-5.47,1.7
		c-1.92-0.3-3.74-0.75-5.59-0.22C671.18,138.65,670.35,139.32,670.03,139.91c-2.92,0.47-5.83,1.26-8.36,1.92
		c-2.53,0.67-4.68,1.32-6.05,1.96c-2.77,1.25-2.41,2.37,4.01,3.28l5.36-1.01c1.8-0.38,3.58-0.67,5.4-0.89
		c-2.49,0.2-3.48,0.24-4.01,0.1c-0.51-0.16-0.57-0.47-1.13-0.77c1.92-0.69,3.7-0.99,5.4-1.09c1.7-0.12,3.28-0.06,4.82,0.06
		c3.06,0.26,5.89,0.79,8.87,0.93C681,143.23,668.27,142.64,670.03,139.91z M769,122.88c-5.85-1.3-8.14-3.02-10.61-4.41
		c-2.47-1.34-5.1-2.55-11.62-2c2.41,0.38,3.99,0.95,5.28,1.62c1.26,0.73,2.23,1.5,3.4,2.23C757.77,121.75,760.89,122.9,769,122.88z
		 M783.48,127.52c-6.21-1.96-14.64-3.48-16.86-2.73C772.81,126.63,773.72,127.68,783.48,127.52z M845.34,166.45
		c-2.81-1.64-5.73-3.02-8.62-4.57c-2.91-1.46-5.77-3.04-8.72-4.45c-3.4,0.42-9.64-3.4-7.43-0.22c2.21,0.59,4.57,1.58,6.94,2.71
		c2.33,1.17,4.64,2.59,6.86,3.75C838.76,166.1,842.75,167.66,845.34,166.45z M946.3,231.35c-3.44-3.04-6.6-6.44-8.3-9.05
		c-1.54-2.29-2.02-3.81-0.83-3.34c-6.52-3.24-10.97-8.4-10.69-3.77c0.36,0.38,1.52,1.34,3.04,2.67c1.46,1.38,3.28,3.1,5,4.84
		c3.42,3.48,6.48,6.98,5.71,7.96C942.27,230.86,944.27,231.11,946.3,231.35z M974.28,265.58c-1.5-0.65-4.15-3.38-7.35-6.98
		c-0.79-0.91-1.64-1.86-2.51-2.85c-0.91-0.97-1.84-1.94-2.81-2.94c-1.92-1.98-3.91-4.03-5.87-6.05c0.2,1.62,1.42,3.7,3.18,5.89
		c1.74,2.19,4.09,4.41,6.19,6.56C969.46,263.46,973.87,266.66,974.28,265.58z M1035.53,334.09c-1.46-4.23-3.87-9.98-5.91-13.16
		c-1.3,1.98,5.65,15.16,1.23,11.6l-3.14-5.57c2.35,4.15,1.8,5.97,1.68,8.08c-0.06,1.07-0.02,2.23,0.55,3.79
		c0.51,1.62,1.5,3.66,3.4,6.5c-1.13-2.51-2.17-5.06-3.38-7.55c1.36,2.23,1.84,2.55,2.11,1.92c0.24-0.65,0.14-2.19,0.04-3.56
		c-0.2-2.75,0-4.98,3.81,2.11C1037.31,341.15,1037.01,338.32,1035.53,334.09z M1048.04,365.28c0.06,0.85,0.16,1.72,0.34,2.53
		C1048.31,366.86,1048.15,366.11,1048.04,365.28c-0.45-5.89,1.32-13.6-6.13-21.6c-0.53,4.64,0.73,7.41,2.13,10.41
		C1045.47,357.08,1047.27,360.2,1048.04,365.28z M1044.48,507.29l-0.42-0.95l-2.73,11.96l0.42,1.09L1044.48,507.29z M1011.93,620.62
		l0.24,5.47l4.21-10.26L1011.93,620.62z M1012.07,647.38c-1.24,2.07-2.25,3.74-3.16,5.18c-2.29,2.89-4.17,3.66-6.05,5.2
		c-1.92,1.52-3.6,3.91-6.26,9.68c1.26-1.07,2.41-2.81,3.44-4.6c0.99-1.82,2-3.62,3.22-4.7c1.72,1.82,2.27-0.02,5.65-5.57
		C1009.93,651.29,1010.98,649.79,1012.07,647.38z M1025.51,614.81c-1.78-9.37-11.4,16.6-16.82,27.59
		C1012.5,638.47,1020.11,616.17,1025.51,614.81z M1034.42,636.19c-1.28-0.04-1.96,0.89-2.49,2.41c-0.26,0.77-0.49,1.68-0.77,2.69
		c-0.32,0.99-0.67,2.06-1.13,3.18l-2.92,5.16c1.36-1.68,2.23-3.42,2.92-5.16C1031.63,641.79,1033,638.98,1034.42,636.19z
		 M1044.16,600.86c0.83-3.1,1.78-5.04,3.72-9.01c-2.92,0.36-3.48,3.24-4.17,7.49c-0.36,2.11-0.73,4.58-1.48,7.23
		c-0.73,2.65-2.04,5.39-3.87,8.14c1.19,0.4,3.36-2.85,5.57-6.66c2.07-3.87,4.23-8.3,5.83-10.16
		C1051.43,591.61,1046.34,599.26,1044.16,600.86z M1060.96,492.86c-3.16,1.64-2.89-2.53-2.29-8.08c0.65-5.55,2.31-12.55,2.13-16.3
		c-0.2,4.29-2.11,9.45-3.28,15.53c-0.32,1.52-0.59,3.1-0.81,4.74c-0.24,1.66-0.51,3.36-0.67,5.14c-0.32,3.58-0.3,7.41,0.24,11.62
		l2.15-12.57l0.1,3.08L1060.96,492.86z M704.08,138.71c-2.15-1.52-4.35-3.08-6.56-4.45c2.08,0.12,4.17,0.4,6.22,0.67L704.08,138.71z
		 M724.36,144.22c-1.54,0.06-5.53-0.38-8.68-0.97c-3.14-0.47-5.45-1.25-3.5-2.25C716.27,141.85,720.32,143.11,724.36,144.22z
		 M738.13,145.52c1.96,0.41,4.35,0.71,8.02,0.77C743.35,145.88,740.68,145.66,738.13,145.52z M778.18,151.33
		c1.19,0.52,2.37,0.83,11.2,2.25c-3.69-1.05-7.34-2.26-11.07-3.18l-11.2-2.73C775.88,149.91,777,150.78,778.18,151.33z"/>
</g>
<g>
	<path d="M158.05,1054.05l66.41-91.15v138.88h-27.27v-56.22l-39.14,54.04l-39.22-54.04v56.22H91.56V962.89L158.05,1054.05z"/>
	<path d="M332.4,1038.98c-0.28,6.68-0.77,11.87-1.47,15.57c-0.7,3.7-2.62,8.53-5.77,14.48l4.54,2.86c1.51,1.01,3.14,2.03,4.88,3.07
		s3.56,1.98,5.47,2.82c2.86,1.23,5.22,2.05,7.07,2.44l-0.08,16.41c-2.64-0.34-5.33-1.01-8.08-2.02c-3.48-1.12-6.76-2.61-9.85-4.46
		c-1.18-0.67-1.52-0.86-1.01-0.55s0.31,0.18-0.59-0.38c-4.38-2.58-7.88-4.99-10.52-7.24c-3.54,4.21-6.62,7.11-9.26,8.71
		c-2.64,1.6-6.71,3.16-12.2,4.67c-6.06,1.68-11.67,2.52-16.83,2.52c-5.5,0-10.63-0.98-15.4-2.95c-4.99-1.96-9.34-4.77-13.05-8.42
		c-3.87-3.7-6.73-7.8-8.58-12.29c-1.85-4.38-2.78-9.29-2.78-14.73h-0.08c0.17-6.57,1.92-11.99,5.26-16.29
		c3.34-4.29,6.89-8.26,10.65-11.91l0.42-0.42c-0.11,0.11,0.34-0.25,1.35-1.09c-0.28,0.28-0.03,0.08,0.76-0.59l3.79-3.2l-2.95-3.96
		c-1.91-2.58-3.65-6.12-5.22-10.6c-1.52-4.26-2.36-8.02-2.53-11.28c0-4.04,0.84-7.74,2.53-11.11c1.46-2.81,3.59-5.58,6.4-8.33
		c3.14-3.14,7.1-5.75,11.87-7.83c4.6-2.02,8.75-3.03,12.46-3.03s7.38,0.65,11.03,1.94c3.48,1.29,6.76,3.14,9.85,5.56
		c2.92,2.41,5.41,5.25,7.49,8.5c1.07,1.85,1.96,3.62,2.69,5.3l-17.17,3.62h-0.08c-1.12-1.68-2.3-3.06-3.54-4.12
		c-1.46-1.18-3.09-2.08-4.88-2.69c-1.8-0.62-3.59-0.93-5.39-0.93c-3.98,0-7.38,1.07-10.18,3.2c-6,4.6-7.63,9.99-4.88,16.16
		c1.18,2.75,3.44,6.56,6.78,11.45c3.34,4.88,5.99,8.53,7.95,10.94c3.2,4.04,7.1,8.52,11.7,13.42c4.6,4.91,8.84,9.13,12.71,12.67
		l5.22,4.71c2.08-2.69,3.3-5.37,3.66-8.04c0.36-2.67,0.66-6.61,0.88-11.83v-0.5L332.4,1038.98z M297.89,1078.25
		c2.3-1.15,4.63-3.41,6.99-6.78c-1.01-0.84-2.32-1.92-3.91-3.24c-1.6-1.32-2.9-2.4-3.91-3.24c-5.72-4.88-10.37-9.37-13.93-13.47
		c-3.56-4.1-7.7-9.26-12.42-15.49l-3.53,2.61l-0.51,0.34c-2.92,2.13-5.76,4.69-8.54,7.66c-2.78,2.97-4.08,7.41-3.91,13.3
		c0,2.86,0.73,5.78,2.19,8.75c1.35,2.97,3.17,5.56,5.47,7.74c2.13,2.02,4.88,3.48,8.25,4.38c2.08,0.56,5.26,0.93,9.55,1.09
		c4.29,0.17,7.45-0.06,9.47-0.67C292.67,1080.39,295.59,1079.4,297.89,1078.25z"/>
	<path d="M427.97,1054.05l66.41-91.15v138.88H467.1v-56.22l-39.14,54.04l-39.22-54.04v56.22h-27.27V962.89L427.97,1054.05z"/>
	<path d="M585.85,1046.47v55.3h-14.31V978.55h25.84c9.03,0,15.68,0.48,19.95,1.43c4.26,0.96,7.97,2.53,11.11,4.71
		c3.93,2.81,7,6.65,9.22,11.53c2.22,4.88,3.32,10.3,3.32,16.24c0,5.95-1.11,11.36-3.32,16.24c-2.22,4.88-5.29,8.73-9.22,11.53
		c-3.14,2.24-6.83,3.84-11.07,4.8c-4.24,0.96-10.9,1.43-19.99,1.43h-4.12H585.85z M585.85,1033.18h7.41
		c12.57,0,21.03-1.47,25.38-4.42c4.35-2.95,6.52-8.09,6.52-15.44c0-7.86-2.23-13.38-6.69-16.58s-12.86-4.8-25.21-4.8h-7.41V1033.18z
		"/>
	<path d="M690.34,973.67l56.05,128.1h-15.91l-15.99-37.79h-48.14l-15.99,37.79h-15.91L690.34,973.67z M690.34,1006.08l-19.61,45.36
		h39.22L690.34,1006.08z"/>
	<path d="M761,1101.77V978.55h14.64v123.22H761z"/>
	<path d="M807.16,1101.77v-128.1l90.14,98.47v-93.59h13.97v128.02l-90.14-97.38v92.58H807.16z"/>
	<path d="M964,1101.77V992.52h-34.84v-13.97h84.33v13.97h-34.68v109.25H964z"/>
	<path d="M1031.71,1101.77V978.55h14.64v123.22H1031.71z"/>
	<path d="M1077.87,1101.77v-128.1l90.14,98.47v-93.59h13.97v128.02l-90.14-97.38v92.58H1077.87z"/>
	<path d="M1280.92,1038.14h50.83v4.12c0,19.42-5.5,34.73-16.5,45.95c-11,11.22-26.01,16.83-45.03,16.83
		c-5.78,0-11.29-0.62-16.54-1.85c-5.25-1.23-10.09-3.03-14.52-5.39c-10.1-5.55-17.9-13.23-23.4-23.02
		c-5.5-9.79-8.25-20.92-8.25-33.37c0-10.27,1.64-19.54,4.92-27.82c3.28-8.28,8.23-15.56,14.86-21.84
		c5.55-5.27,12.01-9.26,19.36-11.95c7.35-2.69,15.49-4.04,24.41-4.04c11.84,0,22.11,2.15,30.8,6.44c8.7,4.29,15.91,10.76,21.63,19.4
		l-12.29,9.85c-4.43-7.46-9.96-13.06-16.58-16.79c-6.62-3.73-14.31-5.6-23.06-5.6c-14.31,0-25.92,4.83-34.84,14.48
		c-8.92,9.65-13.38,22.28-13.38,37.87c0,14.7,4.53,26.76,13.59,36.19c9.06,9.43,20.61,14.14,34.63,14.14
		c12.34,0,22.63-3.75,30.85-11.24c8.22-7.49,12.78-17.24,13.68-29.25h-35.18V1038.14z"/>
</g>
</svg>
