<?xml version="1.0" encoding="utf-8"?>
<!-- Generator: Adobe Illustrator 26.0.3, SVG Export Plug-In . SVG Version: 6.00 Build 0)  -->
<svg version="1.1" id="Layer_1" xmlns="http://www.w3.org/2000/svg" xmlns:xlink="http://www.w3.org/1999/xlink" x="0px" y="0px"
	 viewBox="0 0 1440 1156.3" style="enable-background:new 0 0 1440 1156.3;" xml:space="preserve">
<style type="text/css">
	.st0{fill:#FFFFFF;}
</style>
<g>
	<path class="st0" d="M166.4,597.5l66.4-91.1v138.9h-27.3V589l-39.1,54l-39.2-54v56.2H99.9V506.3L166.4,597.5z"/>
	<path class="st0" d="M340.7,582.4c-0.3,6.7-0.8,11.9-1.5,15.6s-2.6,8.5-5.8,14.5l4.5,2.9c1.5,1,3.1,2,4.9,3.1s3.6,2,5.5,2.8
		c2.9,1.2,5.2,2,7.1,2.4l-0.1,16.4c-2.6-0.3-5.3-1-8.1-2c-3.5-1.1-6.8-2.6-9.9-4.5c-1.2-0.7-1.5-0.9-1-0.5s0.3,0.2-0.6-0.4
		c-4.4-2.6-7.9-5-10.5-7.2c-3.5,4.2-6.6,7.1-9.3,8.7c-2.6,1.6-6.7,3.2-12.2,4.7c-6.1,1.7-11.7,2.5-16.8,2.5c-5.5,0-10.6-1-15.4-3
		c-5-2-9.3-4.8-13-8.4c-3.9-3.7-6.7-7.8-8.6-12.3c-1.9-4.4-2.8-9.3-2.8-14.7h-0.1c0.2-6.6,1.9-12,5.3-16.3
		c3.3-4.3,6.9-8.3,10.7-11.9l0.4-0.4c-0.1,0.1,0.3-0.2,1.4-1.1c-0.3,0.3,0,0.1,0.8-0.6l3.8-3.2l-3-4c-1.9-2.6-3.6-6.1-5.2-10.6
		c-1.5-4.3-2.4-8-2.5-11.3c0-4,0.8-7.7,2.5-11.1c1.5-2.8,3.6-5.6,6.4-8.3c3.1-3.1,7.1-5.8,11.9-7.8c4.6-2,8.8-3,12.5-3
		s7.4,0.7,11,1.9c3.5,1.3,6.8,3.1,9.9,5.6c2.9,2.4,5.4,5.2,7.5,8.5c1.1,1.8,2,3.6,2.7,5.3l-17.2,3.6h-0.1c-1.1-1.7-2.3-3.1-3.5-4.1
		c-1.5-1.2-3.1-2.1-4.9-2.7c-1.8-0.6-3.6-0.9-5.4-0.9c-4,0-7.4,1.1-10.2,3.2c-6,4.6-7.6,10-4.9,16.2c1.2,2.8,3.4,6.6,6.8,11.5
		c3.3,4.9,6,8.5,8,10.9c3.2,4,7.1,8.5,11.7,13.4c4.6,4.9,8.8,9.1,12.7,12.7l5.2,4.7c2.1-2.7,3.3-5.4,3.7-8c0.4-2.7,0.7-6.6,0.9-11.8
		v-0.5L340.7,582.4z M306.2,621.7c2.3-1.2,4.6-3.4,7-6.8c-1-0.8-2.3-1.9-3.9-3.2c-1.6-1.3-2.9-2.4-3.9-3.2
		c-5.7-4.9-10.4-9.4-13.9-13.5s-7.7-9.3-12.4-15.5l-3.5,2.6l-0.5,0.3c-2.9,2.1-5.8,4.7-8.5,7.7s-4.1,7.4-3.9,13.3
		c0,2.9,0.7,5.8,2.2,8.8c1.4,3,3.2,5.6,5.5,7.7c2.1,2,4.9,3.5,8.2,4.4c2.1,0.6,5.3,0.9,9.5,1.1c4.3,0.2,7.5-0.1,9.5-0.7
		C301,623.8,303.9,622.8,306.2,621.7z"/>
	<path class="st0" d="M436.3,597.5l66.4-91.1v138.9h-27.3V589l-39.1,54l-39.2-54v56.2h-27.3V506.3L436.3,597.5z"/>
	<path class="st0" d="M594.2,589.9v55.3h-14.3V522h25.8c9,0,15.7,0.5,20,1.4c4.3,1,8,2.5,11.1,4.7c3.9,2.8,7,6.7,9.2,11.5
		s3.3,10.3,3.3,16.2c0,6-1.1,11.4-3.3,16.2c-2.2,4.9-5.3,8.7-9.2,11.5c-3.1,2.2-6.8,3.8-11.1,4.8c-4.2,1-10.9,1.4-20,1.4h-4.1
		L594.2,589.9L594.2,589.9z M594.2,576.6h7.4c12.6,0,21-1.5,25.4-4.4s6.5-8.1,6.5-15.4c0-7.9-2.2-13.4-6.7-16.6s-12.9-4.8-25.2-4.8
		h-7.4V576.6z"/>
	<path class="st0" d="M698.7,517.1l56,128.1h-15.9l-16-37.8h-48.1l-16,37.8h-15.9L698.7,517.1z M698.7,549.5l-19.6,45.4h39.2
		L698.7,549.5z"/>
	<path class="st0" d="M769.3,645.2V522H784v123.2L769.3,645.2L769.3,645.2z"/>
	<path class="st0" d="M815.5,645.2V517.1l90.1,98.5V522h14v128l-90.1-97.4v92.6H815.5z"/>
	<path class="st0" d="M972.3,645.2V535.9h-34.8v-14h84.3v14h-34.7v109.2H972.3z"/>
	<path class="st0" d="M1040.1,645.2V522h14.6v123.2L1040.1,645.2L1040.1,645.2z"/>
	<path class="st0" d="M1086.2,645.2V517.1l90.1,98.5V522h14v128l-90.1-97.4v92.6H1086.2z"/>
	<path class="st0" d="M1289.3,581.6h50.8v4.1c0,19.4-5.5,34.7-16.5,46c-11,11.2-26,16.8-45,16.8c-5.8,0-11.3-0.6-16.5-1.8
		s-10.1-3-14.5-5.4c-10.1-5.5-17.9-13.2-23.4-23c-5.5-9.8-8.2-20.9-8.2-33.4c0-10.3,1.6-19.5,4.9-27.8s8.2-15.6,14.9-21.8
		c5.6-5.3,12-9.3,19.4-12s15.5-4,24.4-4c11.8,0,22.1,2.2,30.8,6.4c8.7,4.3,15.9,10.8,21.6,19.4l-12.3,9.8
		c-4.4-7.5-10-13.1-16.6-16.8s-14.3-5.6-23.1-5.6c-14.3,0-25.9,4.8-34.8,14.5c-8.9,9.7-13.4,22.3-13.4,37.9
		c0,14.7,4.5,26.8,13.6,36.2c9.1,9.4,20.6,14.1,34.6,14.1c12.3,0,22.6-3.8,30.8-11.2s12.8-17.2,13.7-29.2h-35.2L1289.3,581.6
		L1289.3,581.6z"/>
</g>
</svg>
