<?xml version="1.0" encoding="utf-8"?>
<!-- Generator: Adobe Illustrator 26.0.3, SVG Export Plug-In . SVG Version: 6.00 Build 0)  -->
<svg version="1.1" id="Layer_1" xmlns="http://www.w3.org/2000/svg" xmlns:xlink="http://www.w3.org/1999/xlink" x="0px" y="0px"
	 viewBox="0 0 1440 954.8" style="enable-background:new 0 0 1440 954.8;" xml:space="preserve">
<style type="text/css">
	.st0{fill:#FF1E00;}
	.st1{fill:#F3573A;}
</style>
<g>
	<g>
		<g>
			<g>
				<path d="M924.2,253.1v104.3l-83.8,69.1l-64.8,53.4L712.3,530L649,479.8l-64.8-53.4V819c-30.1-11.4-58.2-26.8-83.8-45.3V253.1
					l83.8,69.1l128,105.5l128.1-105.5L924.2,253.1z"/>
			</g>
		</g>
		<g>
			<g>
				<path class="st0" d="M924.2,387.6v386.1c-14.8,10.8-30.5,20.4-46.8,28.9c-12,6.2-24.3,11.7-37,16.5V561l-64.8,53.4l-63.3,52.2
					L649,614.4l-47.1-38.8V471.2l110.4,91l128.1-105.5L924.2,387.6z"/>
			</g>
		</g>
	</g>
	<path class="st1" d="M1004.7,699.1l0-2.3C1006.4,695.5,1007.5,695.1,1004.7,699.1z"/>
	<path class="st1" d="M1038.7,649.1c1.9-2,4.1-3.8,6.3-5.3C1041.7,648.7,1039.2,650.5,1038.7,649.1z"/>
	<path class="st1" d="M519.3,205l-1.8,1.3C518.2,205.7,518.8,205.3,519.3,205z"/>
	<path class="st1" d="M905.5,207c0.1,0,0.2-0.1,0.2-0.2C905.6,206.9,905.5,206.9,905.5,207z"/>
	<path class="st1" d="M1002.6,666.9l-0.1,1c3.4-4.7,6.3-9.8,9.4-14.7C1008.8,657.8,1005.9,662.5,1002.6,666.9z"/>
	<path class="st1" d="M610.3,157.4l0.6,4.3c2.4-1,5-1.7,7.5-2.6C615.7,158.6,613,157.9,610.3,157.4z"/>
	<path class="st1" d="M617.1,152.4c0.3,0.9,2.1,1.2,4.6,1.1C620.8,152.8,619.6,152.2,617.1,152.4z"/>
	<path class="st1" d="M642.8,146.5c-6.1,0.7-10.7,3.1-13.6,4.1c4.1-0.5,8.6-2.9,10.2-1.2c-3.2,1.3-6.5,2.3-9.6,3
		c-3.1,0.6-5.9,1.2-8.1,1.2c2.6,2.4,2.8,5.9,20-0.1C641.8,150.4,636.9,151.6,642.8,146.5z"/>
	<path class="st1" d="M1054.5,385.1c0.6,3.7,0.8,7.5,1.2,11.2c0.3,3.7,0.8,7.5,0.9,11.2c0.6-3.1,1-6.1,1.5-9.2
		C1056.9,393.9,1055.9,389.4,1054.5,385.1z"/>
	<path class="st1" d="M1001.8,275.3c0.5,1,1.4,2.5,2.9,4.7C1004,278.5,1003,277,1001.8,275.3z"/>
	<path class="st1" d="M1003.6,272.9l3.1,2.9l-6.3-9.9l3.2,5.6c-0.5,1-3.1-1.6-5.7-4.9c-1.3-1.7-2.6-3.5-3.7-5.1
		c-1.1-1.6-2-2.9-2.3-3.7c-0.8,1.2,0.7,3.7,2.7,7c2,3.2,4.8,7,7.2,10.5C1000.5,272.4,1002.9,273.4,1003.6,272.9z"/>
	<path class="st1" d="M991.8,237.3l-1.1-0.4l1.9,2.7l1.8,2.8l3.6,5.6l1,0.5C996.7,244.7,994.4,240.9,991.8,237.3z"/>
	<path class="st1" d="M981.9,674.4c0.4,0.7-0.1,1.9-1,3.4C980.7,677.4,980.9,676.5,981.9,674.4z"/>
	<path class="st1" d="M962.8,695.8c-0.2,0.3-0.5,0.5-0.7,0.8c-0.2,0.1-0.5,0.3-0.8,0.5L962.8,695.8z"/>
	<path d="M462.2,242.3c0.8-0.7,2.1-1.8,3.1-2.7C462.7,242.5,461.5,244,462.2,242.3z M496.3,210.4c-3.3,2.2-7.4,5.1-11.2,8.8
		c-1.9,1.8-3.9,3.7-5.8,5.5c-1.9,1.9-3.8,3.7-5.5,5.6c-3.4,3.7-6.4,7-8.5,9.3c2.8-2.2,5.9-4.8,9-7.7c0.8-0.7,1.6-1.4,2.4-2.2
		c0.8-0.7,1.7-1.4,2.6-2.1c1.7-1.4,3.4-2.9,5.2-4.4c1.7-1.5,3.4-3,5.1-4.4c1.7-1.4,3.5-2.8,5.1-4.1c3.3-2.7,6.4-5.2,9.2-7.5
		C502.3,207,499.6,208.2,496.3,210.4z M461.7,233.6c1.8-1.1,3.4-2.4,6.7-6.6l-6.9,5.8l-3.4,2.9l-3.3,3.1
		C458.1,235.5,459.9,234.7,461.7,233.6z M455.5,244.9c2.6-1.9,5-3.9,7.6-5.8l-0.6-1.9C460,239.6,457.8,242.3,455.5,244.9z
		 M797.4,796.6c-0.5,1.2,0.7,1.8,2.6,2L797.4,796.6z M772.3,805.2c-2.3,0.5-4.5,1.1-6.8,1.5C767.8,806.5,770.2,805.9,772.3,805.2z
		 M404.9,610.9c-0.2-2.5-1.1-5.8-4.1-11.4c0.5,2.3,1,5,1.7,8c0.3,1.5,0.6,3,0.9,4.6c0.4,1.6,0.8,3.2,1.2,4.8
		C404.6,614.9,405.2,613.4,404.9,610.9z M732.3,812.3c1.9,0.2,3.8,0.4,5.7,0.5c0.1-0.1,0.3-0.1,0.4-0.2
		C737.2,812,735.3,812,732.3,812.3z M803.6,829.5c0.8-0.1,1.7-0.3,2.6-0.5c0.9-0.3,1.8-0.6,2.8-0.9c-3.4,0.7-6.5,1.2-9.7,1.7
		C800.6,829.8,802,829.8,803.6,829.5z M406,622.4c-0.5-1.8-0.9-3.7-1.4-5.5C404.6,618.3,404.9,620,406,622.4z M428.6,286.1
		c1.5-0.3,2.9-0.9,6.2-5.5C432.8,281.8,430.8,283.8,428.6,286.1z M464.1,707.5c-1.7-2.2-4-4.6-6.5-7.2c-2.4-2.7-4.9-5.6-7.4-8.5
		c-5.1-5.7-9.1-11.8-10.7-16.3l4.2,6c1.4,2,2.8,4,4.4,5.9l9.1,11.5c0.6-0.6,0.8-1.2,0.7-2C458.5,700.6,468.7,712.3,464.1,707.5z
		 M478,714.5v6c-0.5-0.8-1-1.6-1.5-2.4c-1.8-2.9-4.1-5.8-7-9.5c-2.8-3.7-6.3-7.8-10.7-13c-0.9-0.1-1.1,0.3-1,1.1
		c-0.5-3.5-8.4-8.5-9.5-13.1c4,1.8,7.8,6.5,11.6,11.7c2,2.6,4.1,5.2,6.3,7.7c2.2,2.5,4.4,4.8,6.9,6.5c-0.4-0.5-0.8-1-1.2-1.6
		C474.4,710.6,476.3,712.7,478,714.5z M478,732.4V746c-0.9-1-1.7-2.1-2.5-3.1c-1.1-0.3-2.6-0.4-4.7-1c-2.1-0.6-4.7-1.6-7.7-3.9
		c0.6-0.7-0.8-2.5-3.5-5.1c-2.6-2.5-6.6-5.7-10.4-9.6c-2-1.9-4-3.9-6.1-5.9c-1-1-2-2.1-3-3.1c-1-1-1.9-2.1-2.8-3.2
		c-3.5-4.3-6.5-8.5-8.1-12.1c-2.1-1,3.6,5.5-0.8,2.2c-11.7-15.5-24-36.3-34.6-58.8c-10.6-22.5-19.4-46.6-26.8-68.4
		c0.8-0.7,1.2-1.8,1.4-3.4c0.3-1.6,0.4-3.5,0.3-5.8c-0.1-2.3-0.3-4.9-0.7-7.7c-0.2-1.4-0.4-2.9-0.6-4.4c-0.2-1.5-0.4-3.1-0.5-4.7
		c-0.4-3.2-0.8-6.6-1.3-10c-0.5-3.4-0.6-7-1-10.5c-0.2-3.5-0.6-7-0.6-10.4c0-3.4,0.1-6.6,0.2-9.7c-4.8-5.7-1.2,13.9-3.2,20.8
		c-0.8-13.8-6-2.2-4.7-27.2c-0.7,1.1-1.3,0.2-0.8,5.4c-0.8-6.9,0.8-6.2,1.9-6.5c1.2-0.3,2.2-1.5,1.1-12l-3.1-0.7
		c1.1-4.4,2.7-8.8,4-13.1c-0.6-21.6,1.7-41.7,5.2-60.8c3.5-19.2,8.4-37.3,13.3-55.8c1.4-1.9,2.5-0.5,1.6,4.3c1.4-4,3.1-8.2,5.2-12.2
		c2.1-4,4.4-8.2,6.6-12.5c2.4-4.2,4.8-8.4,6.9-12.8l3.1-6.6c1-2.2,1.9-4.5,2.7-6.8l-3.6,4c1.5-3.6,3-6.7,4.4-9.5
		c1.5-2.7,2.9-5,4.3-7.1c2.8-4.2,5.3-7.5,8.3-10.7c3-3.2,6.1-6.5,9.9-10.8c2-2.1,4.1-4.4,6.4-7.1c1.1-1.4,2.4-2.8,3.7-4.4
		c1.3-1.5,2.8-3.1,4.2-4.8c-1.2,1.7-3.1,3.6-4.9,6c-1.8,2.3-3.9,4.8-5.6,7.2c-3.7,4.7-6.2,9.3-5.2,11c0.9-0.3,2.2-1.6,3.7-3.3
		c1.5-1.7,3.3-3.9,5-6.2c1.7-2.3,3.4-4.8,4.7-7.1c1.3-2.3,2.6-4.3,3.2-5.8l1.3,4.8c-2.7,1.2-5.8,4.7-9.3,8.7
		c-3.5,4-6.9,8.8-10.3,12.8c1.8-2.1,2.9-2.3,4.1-2.6c-6.2,6.7-12.8,17.2-19.8,28.2c2.7-5.6,5.9-11,9-16.4c-3.6,2.2-7.8,8.9-11,16
		c-1.6,3.5-3.3,7-4.7,10.1c-1.3,3.1-2.5,5.6-3.7,7.1c3.5,1.4,7.8-8.9,5.8,2.4c-1.4,3.5-2.8,6.3-3.8,8.8c-1,2.4-1.9,4.3-2.8,5.9
		c-1.7,3.1-3.1,4.9-4.6,6.5c-1.5,1.7-3,3.3-5.1,6.1c-1,1.4-2.1,3.1-3.4,5.3c-0.6,1.1-1.3,2.3-2,3.7c-0.6,1.4-1.3,2.9-2.1,4.6
		l0.3-5.3c-1.6,4.5-3.9,8.2-6,12.5c-1.1,2.2-1.9,4.5-2.5,7.2c-0.7,2.7-1.1,5.7-1.3,9.1c2.5,0.4,4.9-9.7,7.6-14.4
		c0.2,1.6-1.8,5.4-4,10.2c-1.1,2.4-2.3,5-3.1,7.7c-0.7,2.7-1.2,5.5-1.1,8.2c4.7-8,12-29.5,17-44.1c0.3,2.1,1.5,2.5,3.7,1
		c-8.8,20.8-16.2,43.6-20.5,67.1c-4.4,23.4-5.5,47.6-2.8,70.1c0.3-3,0.7-5.2,1-6.5c0.3-1.4,0.5-2.1,0.6-2.2c0.3-0.3,0.4,1.6,0.5,4
		c0.3,4.9,1.1,12,3.4,9.1c-1.5,1.8-1.4,6.2-0.5,11.6c0.5,2.7,1,5.7,1.5,8.8c0.2,1.5,0.5,3.1,0.6,4.7c0.2,1.6,0.4,3.1,0.5,4.7
		c2.4,2.1,1.8-4.1,1.7-9.7c-0.2-5.5-0.4-10.4,1.5-5.7c0.3,2.9,0.5,6,0.6,9.1c0.2,3.2,0.5,6.4,0.8,9.8c0.3,3.4,0.4,6.9,0.8,10.4
		c0.4,3.6,0.9,7.2,1.3,10.9c0.4,3.7,1.1,7.4,1.8,11.2c0.4,1.9,0.8,3.8,1.1,5.6c0.4,1.9,0.8,3.8,1.3,5.6c1,3.7,2.1,7.4,3.4,11.1
		l0.9,2.8l1.1,2.7c0.8,1.8,1.5,3.6,2.3,5.3c0.6-2.6-1.9-9.3-1.5-10.6c1.5,4.9,2.9,10.2,4.1,15.8c1.3,5.5,2.9,11,4.4,16.4
		c3.4,10.5,7.6,20,13.8,24.5c-0.8-2.3-1.6-4.8-2.4-7.3c-0.7-2.5-1.5-5.2-2.2-7.8c-0.8-2.6-1.5-5.3-2.3-7.9c-0.8-2.6-1.3-5.3-2-7.9
		c1.1,2.3,2.8,5.4,6.2,9.6c-0.3-2.6-0.6-5.1-0.8-7.7c11.6,21,3.2,19.1,7,32.7c3.6,3.8,7.6,7.2,11.3,10.7c17,21.4,31.9,41.8,41,58
		c0.9,0.9,2.5,2.5,4.4,4.2C476.1,730.8,477.1,731.6,478,732.4z M365.9,451l1.5-12.4l-3.9,6.1L365.9,451z M383.1,582.8l-4.1-9.5
		l1.8,7L383.1,582.8z M450.6,702.3c-1.6-1.8-2.6-2.4-3.5-2.6c-2-1.8-4.7-4.3-7.6-7.4c-2.9-3.1-5.9-6.9-9-10.7
		c-3.2-3.8-6-7.9-8.6-11.8c-2.6-3.9-5-7.5-6.6-10.7c-2.3-2.2-1.8,0.9-0.5,5.2c1.5,4.2,3.9,9.7,4.9,12.2c1-3.1,2.2-3.6,3.6-2.5
		c1.4,1.1,2.8,3.9,4.7,7.2c1.8,3.3,3.9,7.2,6.1,10.9c2.2,3.6,4.9,6.7,7.6,8.6c-0.6-1.6-2.3-4-3.9-6.2c-1.6-2.3-2.8-4.7-2.9-6
		c2.8,2.5,8.3,8.4,11.1,13.1c0.1,1.3,0.8,3,2,4.5c-0.1-1.1-0.9-2.7-2-4.5c-0.2-1.3,0.3-2.1,1.2-2C448.6,701,449.9,702,450.6,702.3z
		 M825,795.7v24.7c-1,0.3-2,0.6-3,0.9c-1.6,0.4-3.2,0.7-4.7,1l0,3.1c-3.2,0.5-6.8,1.1-10.3,1.6c-3.5,0.5-7,1-10,2.1
		c0.1,0.4,1.1,0.6,2.4,0.7c-24,3.9-43.4,6.4-64,7.6c1.3,2,1.4,3.3,13.4,2.9c-2.3,0.6-4.9,1-7.7,1.3c-1.4,0.1-2.8,0.3-4.2,0.4
		c-1.5,0.1-3,0.1-4.5,0.1c-6.2,0-12.9-0.1-19.8-0.9c-3.5-0.3-7.1-0.7-10.7-1c-3.6-0.5-7.2-1-10.9-1.4l-5.5-0.6l-5.5-0.7
		c-3.6-0.5-7.3-0.8-10.9-1l2,1.7c-2.7-0.6-5.3-1.5-7.9-2.3l-7.8-2.4c3.1,1.5,0.8,2.1,0.7,3.4c-1.7-0.2-3.5-0.5-5.3-0.7
		c-1.8-0.3-3.6-0.7-5.4-1c-3.6-0.7-7.2-1.4-10.9-2.1c-3.6-0.8-7.2-1.8-10.7-2.8c-3.5-1-7-1.9-10.3-3.1c-4.9-1.7-9.5-3.5-13.5-5.4
		v-17.4c0.3,0.2,0.7,0.4,1,0.5c2.1,1.7-4.7,0.6,5,5.2c1.7-1-1.2-3-5-5.2c-0.2-0.2-0.5-0.4-1-0.7V800l4.8,2.7c3.7,2,7.4,3.8,11.2,5.7
		l-7.3-4.5c5,2.2,10,4.5,15.2,6.5c-0.7-1.5-4.8-4.3-10.4-7c-4-1.8-8.7-3.8-13.5-5.2v-1.8c4.4,1.4,7.5,1.6,7.7-0.5
		c-3.7-0.9-6.1-1.6-7.7-2.2v-2c2.4,1.2,4.9,2.5,7.5,3.7c3.6,1.7,7.5,3.2,11.1,4.7c1.8,0.8,3.6,1.5,5.3,2.2c1.7,0.7,3.4,1.3,5,1.9
		c-5.4-2.7,7.2-1.4,8.9-1.8c12.5,3.7-0.4,2.6-1.7,4c3.4,1.1,7.7,2.7,12,4c2.1,0.7,4.2,1.2,6.2,1.5c2,0.2,3.8,0.1,5.4-0.4
		c5.1-0.5,2.2-1.6-2.3-3c-4.5-1.4-10.5-3.3-11.8-4.7l9.3,2.9c3.1,0.9,6.3,1.7,9.5,2.5c6.3,1.8,12.8,3,19.2,4.4l-1-0.8
		c1.5,0.6,3.7,1.4,6.1,1.7c2.4,0.4,4.9,0.5,6.9,0.2c2-0.9,0.7-1.6-1.8-2.1c-2.5-0.5-6.2-0.5-9.2-0.7c10.3-0.7,19.2,1.5,27.8,2.7
		c2.2,0.3,4.3,0.7,6.4,0.9c2.1,0.2,4.3,0.2,6.4,0.1c2.1-0.1,4.2-0.3,6.4-0.7c2.1-0.4,4.2-1,6.4-2l11.6,0.8c1-0.6,2.8-1.8,0.8-1.8
		c3.7,0.3,7.5,0.3,11.3,0.5c2.7-0.1,4.8-0.3,6.4-0.5c1.6-0.3,2.7-0.6,3.5-0.9c1.6-0.6,1.7-1.3,1.4-2c-0.6-1.4-2.9-2.8,0.4-3.9
		l-1,0.2c6.2-1.9,10.5-4.5,6-4.3c3.7-0.1,7.3-0.6,10.9-1c3.6-0.5,7.3-0.7,10.9-1.3l-0.1-0.1c4.5,0.5,14.8-0.9,23.9-2.7
		C824.3,795.8,824.6,795.8,825,795.7z M656,816.3c-9-2.2-17.9-4.3-26.7-7.2l0.6,0.7l-1.7-0.5l4.4,3.7l-2.7-3.2
		c4.3,1.2,8.6,2.5,12.9,3.5C647.3,814.3,651.6,815.4,656,816.3z M695.9,831.6c1.5,0.8,3.5,1.5,6.3,2c2.8,0.4,6.2,0.4,10.4,0
		c-6.5-2.1-9.9-3.5-13.9-5.1c-2-0.7-4-1.4-6.7-2.1c-2.6-0.7-5.8-1.3-9.9-2.2L678,827c3.1,0.1,4.2-0.7,5.8-1c1.7-0.3,4-0.4,9.7,0.9
		C692.5,828,693,830,695.9,831.6z M727.6,835c-2.9-1.1-5.2-1.6-7.1-1.7c-1.9-0.1-3.5,0-4.9,0.4c-2.9,0.8-5.4,2.4-9.6,3.3l-3.5,0.3
		l-3.5,0.1c2.9,0.3,5.2,0.1,7-0.4C713.2,836.4,720.4,836,727.6,835z M379.4,603.5c-1.3-2.8-3.6-13.4-3.8-8.6
		c-0.5-2.1-2.2-7.2-0.6-5.6L379.4,603.5z M786.1,830.3c-3.4,0.7-6.7,1.2-9.8,1.4s-5.8,0.3-8,0c-4.5-0.5-6.8-1.7-5.5-3.3
		c2.9-0.3,6.1-0.5,9.4-1c3.3-0.5,6.6-1,9.9-1.5c3.2-0.4,6.3-0.7,9-1c2.7-0.2,5.1-0.2,6.9,0.2C791.2,824.7,802.5,829.2,786.1,830.3z
		 M651.3,821.3c-0.1,0.2-0.1,0.4-0.1,0.6C651.1,821.7,651.1,821.5,651.3,821.3z M680.8,832.1c-4.1-0.9-6.3-1.4-9.3-1.4
		c-2.7-0.2-8.1-1.6-12.7-3.3c-2.3-0.9-4.4-1.8-5.8-2.8c-1.1-0.8-1.8-1.7-1.8-2.5c0.2,0.4,1,1,2.1,1.5c1.8,0.8,4.4,1.9,7.5,2.9
		c3.1,1,6.6,2.2,10.2,3.1C674.5,830.4,678,831.3,680.8,832.1z M685,835.6l-10.1-1.3c-3.4-0.4-6.7-0.8-10.1-1.4
		c3.2,0.3,8,0.3,12.1,0.7C681.1,833.9,684.5,834.5,685,835.6z M426.9,299.5c2.7-4.3,11.8-13,5.6-9.6
		C428.8,292.4,429.6,295.2,426.9,299.5z M415.1,311.4c-2.7,4.5-5.3,8-7.6,10.3C411.7,317.3,413.7,314.3,415.1,311.4z M421.2,299.5
		c-1,1.7-1.8,3.2-2.5,4.6c-1.4,2.8-2.3,5-3.5,7.2c1.5-2.3,3.1-4.9,4.8-7.9c0.8-1.5,1.7-3,2.5-4.6c0.4-0.8,0.8-1.6,1.3-2.5
		c0.5-0.8,0.9-1.7,1.4-2.5C423.4,295.9,422.2,297.8,421.2,299.5z M377.8,419.4c1-1.4,1.9-2.7,2.7-4.2c0.9-1.5,1.7-3.2,2.5-5.5
		c0.9-2.3,1.6-5.3,2.9-9.1c-0.5,0.5-1.6,2.6-2.5,5.3c-1,2.7-2,5.9-3,8.2c-1.8,4.6-3,5.8-1.3-7.4c0,0-0.3,3-1.1,6.8
		c-0.4,1.9-0.9,3.9-1.4,5.9c-0.5,2-1.1,3.8-1.8,5.3C375.9,422.5,376.9,420.9,377.8,419.4z M370.1,452.2c0.2,2,0.1,4.7,0,7.4
		C370.4,457.2,370.5,454.8,370.1,452.2z M369.8,468.1c-0.1-2,0.1-5.3,0.3-8.5c-1.1,8.2-4.7,15.4-3.1,26.6c1.6-4.3,4-7.5,4.5-16.7
		C370.4,471,370,470.2,369.8,468.1z M630.4,798.2l-5.2-1.7l-5.1-1.9l-10.1-3.8c2,1.2,4.1,2.3,6.2,3.4
		C620.9,795.6,625.6,797.1,630.4,798.2z M677.2,809.3l8.4,1c-4.9-0.9-9.9-1.8-14.8-2.8l-2,0.7C671.6,808.7,674.4,809,677.2,809.3z"
		/>
	<path class="st1" d="M1049,450.8c4-2.7,3.9,21.8,4.5,28.9c-1.3-1.2-1.8-3-1.9-5.2c-0.1-2.2-0.1-4.8,0-7.5c0.1-2.7,0.2-5.6-0.1-8.4
		C1051.3,455.8,1050.5,453.1,1049,450.8z"/>
	<path class="st0" d="M717.9,146.8c1,0.3,2,0.7,2.8,1.1C718.9,148.3,717.9,147.7,717.9,146.8z M1084.3,475.4
		c-0.2,4-0.4,8.1-0.7,12.2c-0.1,2.1-0.2,4.1-0.4,6.2c-0.2,2.1-0.3,4.2-0.5,6.3c-0.3,4.3-0.5,8.6-1,13.1c-0.4,4.5-0.6,9.1-0.9,13.9
		c0-4.8-0.2-9-0.3-12.8c-0.1-3.7-0.1-7-0.3-9.9c-0.3-5.8-0.4-10.2-0.5-14.2c-0.2-4-0.4-7.6-0.7-11.9c-0.1-2.1-0.2-4.4-0.5-7
		c-0.3-2.5-0.6-5.4-1-8.6c-0.1,3.8-0.1,7.2-0.2,10.4c-0.1,3.1-0.2,6-0.2,8.6c0,2.6,0.1,5.1,0.1,7.5c0.1,2.4,0,4.6,0,7
		c0.1,9.2,0.1,18.8-2.7,34.9c1.4-5,2.5-10,3.6-15c0.9,4.4,1,9.7,0.1,15.3c-0.8,5.6-1.9,11.4-3.5,16.8c-1.5,5.4-2.7,10.4-3.5,14.5
		c-0.8,4-1,7.1,0.2,8.8c-0.7,2.4-1.5,4.7-2.4,7c-0.9,2.2-1.9,4.4-3,6.6c-2.1,4.3-4.1,8.6-6.5,12.9c-2.4,4.3-4.6,8.8-6.9,13.5
		c-2.4,4.7-4.6,9.7-6.7,15.3c3-2.3,6-4.8,9-7.3c-1.4,3.4-2.7,6.8-4.2,10.2l-4.6,10l-3.5-1.4c-0.8,1.6-1.5,3-2,4.2
		c-0.6,1.2-1,2.2-1.3,3.2c-0.6,1.8-0.8,3-0.6,3.6c-2.7,2.8-5.2,6.2-7.7,9.7c-2.6,3.5-5.2,7.4-7.8,11.4c-1.3,2-2.7,4-4.2,6
		c-1.4,2-2.9,4-4.5,6c-1.6,2-3,4-4.8,5.9c-1.7,1.9-3.5,3.8-5.3,5.5l0.1,3c-1.3,1-3,2.4-3.6,2.6c0.2,2.7-2.8,6.9-5.3,10.8
		c-2.6,4-5,7.6-4.2,8.9c4.8-4.6,15.9-15.5,13.5-15.8c3.2-2.8,4.2-3.1,3.7-1.8c-0.5,1.3-2.3,4.2-5.1,7.5c-2.7,3.4-6.1,7.3-9.2,11
		c-3.3,3.5-6.3,6.7-8.2,8.8c3.4-5,2.3-4.8-0.1-2.7c-2.5,2.1-6.3,6-9,8c-0.4,1.1,1.4-0.3,2.7-0.5c-6.6,8-12.7,11.7-18.2,14.7
		c-2.7,1.6-5.1,3.1-7.3,5.1c-2.1,2.1-4,4.5-5.7,7.9l-5-0.5l-5.5,6.1c-0.5,0.5-1,1.1-1.5,1.6V742c2.5-2,4.7-4.2,7-6.3
		c2.4-2.3,4.8-4.6,7.2-6.9c4.5-4.7,9-9.2,13.5-13.1c4.4-4,8.8-7.3,13.7-9.5c-0.3-4.1-3-2.3-0.3-9.2c-5.2,5.7-9.8,9.5-13.7,12.6
		c-3.8,3.1-7.5,4.9-11.5,6c-3,2.2-5.2,4.1-6.8,5.7c-1.6,1.6-2.8,2.8-3.5,3.9c-1.4,2.2-1.4,3.8-1.4,5.4c-0.1,2-0.3,4.2-4.2,7.5v-5.5
		c1.2-0.8,2.3-1.6,3.5-2.3c-0.5-0.9-1.8-0.9-3.5-0.3V725c3.1-2.9,6.1-6,8.8-9.2c3.4-3.9,6.7-7.5,9.4-11c2.7-3.4,5.1-6.3,7.1-8.3
		c2.5-1.5,6.4-4.8,10.1-8.3c1.9-1.8,3.7-3.6,5.3-5.4c1.5-1.8,2.7-3.6,3.5-5c0.3,0.5,1.7-0.5,3.6-2.1c1.9-1.7,4.4-3.9,6.5-6.1
		c4.4-4.3,8.6-7.6,8-2.5c1.5-2,2.7-3.8,3.6-5.3c0.9-1.5,1.4-2.9,1.9-4.1c0.8-2.4,1.1-4.1,1.4-5.7c0.6-3.3,1.8-6,8.7-13.4
		c-7,4.6,3.6-12.7-3.4-7c0,1.9-1,4.3-2.5,7.1c-0.8,1.3-1.7,2.8-2.7,4.2c-1,1.4-2.2,2.9-3.5,4.3c-2.5,2.9-5.1,5.7-7.6,8.3
		c-2.6,2.5-5.1,4.7-7,6.4c2.3-4.1,4.7-8.2,6.7-12.5l3.2-6.4l1.6-3.2l1.4-3.2c-2.3,6.6,4.5-1,6.8-4.4l-1.2-4.8c2.4,0,4.5-3.1,6.6-7.7
		c1-2.3,2.2-5,3.2-8c0.9-3,1.9-6.2,2.9-9.5c0.5-1.6,1-3.3,1.5-4.9c0.5-1.7,0.9-3.4,1.4-5c1-3.3,2-6.5,3.1-9.5c2-6,4.4-11,7.7-13.8
		c-1.5,4.2-2.2,8.3-3.1,11.8c-0.2,0.9-0.5,1.7-0.8,2.5c-0.3,0.8-0.7,1.5-1.1,2.1c-0.8,1.3-1.8,2.3-3.2,2.9c-1.7,8.2,0,7.9,2.1,6.6
		s4.7-3.7,4.7,0.5c1.5-3,2.9-6.2,4.3-9.6c1.2-3.5,2.4-7.2,3.6-11c0.6-1.9,1.2-3.8,1.7-5.8c0.5-2,1-4,1.5-6c0.9-4,2.1-8.1,2.8-12.3
		c0.8-4.2,1.6-8.3,2.5-12.5c0.7-4.2,1.4-8.3,2.2-12.3c0.9-4,1.5-8,2.3-11.9c0.8-3.8,1.9-7.6,2.8-11.1c-1.3,2.5-2.4,7.1-3.4,11.1
		c-1.1,4-2.2,7.5-3.9,7.9c0.1-5.3,0.8-10.8,1.9-16.4c0.8-5.7,2.1-11.6,3.2-17.6c2.2-12.1,4.6-24.9,5-37.5l-3.8,4.8
		c0.9-10.5,0.4-12.5-0.5-14.7c-1-2.2-2.2-4.5-3.1-15.7c0.6,0.8,2.6,3.6,1.8-1.5c-3.7-18-3.8-1.2-7.1-12.8
		c0.8-11.8-1.1-14.2-3.3-17.2c-1.1-1.5-2.5-3.1-3.8-6.1c-0.7-1.5-1.3-3.3-2-5.7c-0.3-1.2-0.6-2.5-0.9-3.9c-0.3-1.5-0.7-3-1.1-4.8
		l-0.8,2.5c-0.6-2.7-1.3-5.5-2.2-8.4c-0.9-2.9-1.8-5.8-3.1-8.6c-2.5-5.7-5.2-11.6-8.6-17.1c-1.6-2.8-3.3-5.6-4.9-8.4
		c-1.7-2.8-3.6-5.4-5.3-8.1c-1.8-2.6-3.4-5.4-5.1-7.9c-1.8-2.5-3.5-5.1-5.1-7.5c0.9,0.5,3.4,4.8,6,8.4c2.4,3.7,4.9,6.9,6.2,5
		l-3.3-6.8l-3.6-6.7l-3.6-6.7c-1.2-2.2-2.6-4.4-3.8-6.5c-1.9-1-9.3-11.7-6.7-3.7c1.8,3.7,4.6,6.6,6.5,8.8l-3.9-2.1
		c-6.7-12.2-5.3-12.8-1.7-10.5c3.5,2.3,9.3,7.5,10.8,6.4c-9.3-12.1-9.7-18.4-15.8-26.7c-5.8-1.5,8.3,18.4-2.7,10.4
		c-1.8-1.5-3.9-4.3-6.5-7.5c-2.6-3.2-5.4-7.1-8.1-11.2c-2.9-3.9-5.7-8-8-11.7c-0.6-0.9-1.1-1.9-1.7-2.8c-0.5-0.9-1.1-1.7-1.6-2.5
		c-1-1.6-1.8-3-2.4-4.3c-4.2-1-8.8-4.1-13.9-7.7c-2.5-1.8-5.1-3.8-7.6-5.9c-2.5-2.1-5.2-4.1-7.7-6.1c-2.5-2-4.9-3.9-7.1-5.6
		c-2.3-1.6-4.5-3.1-6.4-4.2c-3.6-2.1-6.2-3.1-7.4-2.1c0.1-0.9-2.7-5-8.3-7.6l2.4,3.7c-4.7-2.2-7.9-4.4-10.3-6.3
		c-2.4-1.9-4-3.8-5.3-5.6c-1.3-1.8-2.4-3.5-4-5.2c-1.5-1.6-3.5-2.9-6.6-4.1c-0.5,1.2,2.9,3.5,4,5.8c-3.2-1.5-6.1-3-8.8-4.6
		c-2.7-1.6-5.2-3.3-7.8-4.7c-2.5-1.5-4.9-3.1-7.2-4.7c-2.3-1.6-4.6-3.2-7-4.6c-9.3-5.9-19.2-11.3-33.2-13.4c0.8,1,1.5,2,4.5,2.6
		c0.8,1.1-3.9-0.4-12.3-4.7l10.3,0.4c-2.9-2.9-6.9-5.1-11.5-6.4c-4.6-1.2-9.9-2-15.4-2.5c-5.6-0.3-11.4-0.6-17.2-1
		c-5.9-0.2-11.7-0.9-17.5-2.1c2,1.6,18.8,4.5,9.6,5.1c-3.7-0.5-6.3-1.5-8.4-2.5c-2.2-0.9-3.8-2.1-5.6-3.1c-3.6-1.9-7.6-3.8-16.8-2.1
		c8.1,1.4,5.3,5.2,12.8,6.8c-5.7-0.4-10.7,0.1-14.7,0.2c-4,0.1-7-0.4-9.1-1.9c-3.2,0.3-4.5,1.4-4.7,2.4c-1.9-0.6-4-1-6.3-1.1
		c-1.1-0.1-2.3-0.2-3.5-0.2c-1.2,0-2.4,0.1-3.6,0.2c-4.8,0.4-9.7,1.1-13.5,1.8c0.7,0.4,1.4,0.9,2.1,1.4c-3.7-1.8-7-2.4-10.3-2.6
		c-3.2-0.1-6.4,0.2-9.5,1.2c-3.2,0.9-6.5,2-10.1,3c-0.9,0.3-1.8,0.5-2.8,0.8c-1,0.3-1.9,0.6-2.9,0.8c-2,0.5-4.2,1-6.5,1.4l3.4,1.7
		c-3.9,0.3-9.1,0.1-14.7,1.2c-2.8,0.5-5.8,1.1-8.8,2c-3,0.9-6,2.4-9,4.1l7.5,0.7c-2.8,0.3-6,1.1-9.3,2.2c-1.7,0.5-3.5,1.1-5.2,1.7
		c-1.7,0.7-3.5,1.4-5.3,2.1c-3.5,1.4-7,2.6-10.2,3.6c-3.2,1.1-6.1,1.7-8.6,1.5c-3.3,2.1,11.1,0.9-4.9,7.7
		c-4.3,0.1-17.5,4.1-20.5,8.8c0.6,1.1,3.1,1.5,6.7-1.8c2.5-1.4,0.7-0.9-0.6-1.1l6.2-0.7c-5.7,3.6-8.1,4.6-10.9,5.3
		c-1.4,0.4-2.8,0.8-4.6,1.5c-1.8,0.8-4.1,1.8-7,4c-0.8,1.4,0.5,1.3,2.3,0.9c1.8-0.4,4.3-0.9,5.6-0.8c-16.2,7-31.9,15.3-47.1,24.8
		c-2.1-0.9,2.7-5.8-2.8-4.8l7.2-5.8l3.6-2.9l1.8-1.5l1.9-1.4c2.7-3.8,0.1-3.2-4.1-1.1c-4.1,2.2-9.7,5.9-13.3,7.9l10.3-7.9
		c0.3-0.7-0.2-0.9-1.3-0.3c2.6-2,5.4-3.7,8.2-5.4c-6.2,2.6-8,2.9-7.8,1.7c0.2-1.2,2.5-3.6,4.9-6c4.7-4.8,9.3-9.4-3.7-2.8
		c3.1-1.9,6.7-3.5,10-4.8c3.3-1.2,6.6-1.9,8.8-2.2c11.9-5.9,8-6.2,11.9-9.7l-4.7,1.6l-4.6,1.9l-9.3,3.8c13.7-7.4,12.6-7.7,10.3-7.9
		c-1.2-0.1-2.6-0.1-2.6-1c0-0.8,1.4-2.7,6.2-5.8c12.2-5.2,20.8-11.2,28.1-16.9c7.3-5.4,13.2-10.7,19.8-13c13.3-4.2,11.1-2.4,7.7-0.1
		c-3.4,2.4-7.9,5.3,0.5,3.4c3.6-1.2,5.8-1.8,7.2-2.5s2.1-1.1,2.5-1.7c0.9-1,1.1-2,5.6-3.7c2.6,0.8,5.1,1.6,7.6,2.6
		c16.6-3.3-0.3-4.4,9.5-4.9c12.7-5.8-4.6-0.8-8.8-3.3c1.7,0.1,6.3-0.3,11.2-1.1c4.9-0.7,10.2-1.6,13.2-3.1c-0.4-1.2-18.5,2-7-0.7
		c2.7-0.4,5.2-0.7,7.7-1.1c2.4-0.4,4.8-0.7,7-0.9c4.5-0.5,8.5-1.1,12.3-1.7c3.8-0.6,7.3-0.9,10.7-1.4c3.4-0.4,6.6-1,9.9-1.4
		c12.8-1.4,25.3-3.2,44.8-1.6l-3.3-2.4c4.4,0.8,7.7,1.8,12,1.5l-2.2-1.7c1.4,0.1,4.9,0.7,9.7,1.5c2.4,0.4,5.2,0.8,8.2,1.4
		c3,0.6,6.2,1.3,9.6,2c6.8,1.2,14.1,3.2,21.4,4.8l2.7,0.6c0.9,0.3,1.8,0.5,2.7,0.7c1.8,0.4,3.5,0.9,5.3,1.4c3.5,0.8,6.8,1.7,10,2.4
		c-4-2-8.1-3.9-12.2-5.9l10.9,4.4c3.6,1.6,7.1,3.2,10.6,4.9l-1.3-4.6c1.6,1.6,4.5,3,8.3,4.5c3.7,1.6,8.2,3.4,13.1,5.1
		c9.8,3.7,21.3,8.1,30.9,13.4l1-2.3c1.9,1.2,3.8,2.3,5.7,3.5l5.5,3.8l-3.2-3.7c5.8,3.3,11.7,7.4,17.6,12c3,2.3,6,4.5,9.2,6.5
		c3.1,2.2,6.3,4.2,9.8,5.8c-8.5-4.7-8.3-9.4-6.7-10.4c5.2,4.4,10.4,8.6,15.4,13l7.4,6.8c2.5,2.3,4.9,4.5,7.2,6.9
		c1.7-0.7,13.3,8.1,9.3,2.7l3.4,4c1.6,2.1,3.2,4.2,4.8,6.3l0.5-2.3c3,2.4,6,4.9,9,7.4c2.8,2.6,5.5,5.3,8.2,8
		c5.5,5.3,10.2,11.1,14.9,16.9c2.4,2.9,4.5,5.9,6.7,8.9c2.1,3,4.2,6,6.3,9c2.1,3,3.9,6.2,5.8,9.3c1.9,3.1,3.9,6.1,5.7,9.3
		c7.2,12.6,14.1,25.2,20.7,38.3c1.7,3.3,3.4,6.5,5.2,9.7c1.6,3.3,3.3,6.6,5.1,9.9c0.9,1.6,1.8,3.3,2.7,5c0.9,1.7,1.7,3.4,2.6,5.1
		c1.8,3.4,3.6,6.8,5.6,10.2l0.3-1.3c0.8,3,1.4,6,2,9l1.9,9c0.7,3,1,6,1.5,9l1.4,9c2.2,6.2,6,7.2,9.8,17.5c-1.2-1.1-1.6-0.3-1.4,1.5
		c0.1,1.9,0.6,4.8,1.2,8.1c0.6,3.3,1.3,7,1.6,10.3c0.3,3.3,0.3,6.3-0.3,8.1c2.7,8.2,2.5-0.5,3.6-3.1
		C1084.6,443.1,1084.7,459.2,1084.3,475.4z M607.2,152.3c-1.3-0.4,0.3-2-3-1.9l-6.1,1.3C590.9,155.9,600.4,154.5,607.2,152.3z
		 M678.3,140.6c3.2-0.6,6.3-1.2,8.9-1.9c2,0.4,4.2,0.4,6.6-1l-1.2-0.7c-1,0.5-3,1.1-5.5,1.7c-1.9-0.3-3.7-0.8-5.6-0.2
		C679.4,139.3,678.6,140,678.3,140.6c-2.9,0.5-5.8,1.3-8.4,1.9c-2.5,0.7-4.7,1.3-6,2c-2.8,1.2-2.4,2.4,4,3.3l5.4-1
		c1.8-0.4,3.6-0.7,5.4-0.9c-2.5,0.2-3.5,0.2-4,0.1c-0.5-0.2-0.6-0.5-1.1-0.8c1.9-0.7,3.7-1,5.4-1.1c1.7-0.1,3.3-0.1,4.8,0.1
		c3.1,0.3,5.9,0.8,8.9,0.9C689.2,143.9,676.5,143.3,678.3,140.6z M777.2,123.6c-5.8-1.3-8.1-3-10.6-4.4c-2.5-1.3-5.1-2.6-11.6-2
		c2.4,0.4,4,0.9,5.3,1.6c1.3,0.7,2.2,1.5,3.4,2.2C766,122.4,769.1,123.6,777.2,123.6z M791.7,128.2c-6.2-2-14.6-3.5-16.9-2.7
		C781,127.3,781.9,128.4,791.7,128.2z M853.6,167.1c-2.8-1.6-5.7-3-8.6-4.6c-2.9-1.5-5.8-3-8.7-4.4c-3.4,0.4-9.6-3.4-7.4-0.2
		c2.2,0.6,4.6,1.6,6.9,2.7c2.3,1.2,4.6,2.6,6.9,3.8C847,166.8,851,168.3,853.6,167.1z M954.5,232c-3.4-3-6.6-6.4-8.3-9.1
		c-1.5-2.3-2-3.8-0.8-3.3c-6.5-3.2-11-8.4-10.7-3.8c0.4,0.4,1.5,1.3,3,2.7c1.5,1.4,3.3,3.1,5,4.8c3.4,3.5,6.5,7,5.7,8
		C950.5,231.5,952.5,231.8,954.5,232z M982.5,266.3c-1.5-0.6-4.2-3.4-7.3-7c-0.8-0.9-1.6-1.9-2.5-2.9c-0.9-1-1.8-1.9-2.8-2.9
		c-1.9-2-3.9-4-5.9-6.1c0.2,1.6,1.4,3.7,3.2,5.9c1.7,2.2,4.1,4.4,6.2,6.6C977.7,264.1,982.1,267.3,982.5,266.3z M1043.8,334.8
		c-1.5-4.2-3.9-10-5.9-13.2c-1.3,2,5.7,15.2,1.2,11.6l-3.1-5.6c2.3,4.1,1.8,6,1.7,8.1c-0.1,1.1,0,2.2,0.6,3.8
		c0.5,1.6,1.5,3.7,3.4,6.5c-1.1-2.5-2.2-5.1-3.4-7.5c1.4,2.2,1.8,2.5,2.1,1.9c0.2-0.6,0.1-2.2,0-3.6c-0.2-2.8,0-5,3.8,2.1
		C1045.5,341.8,1045.2,339,1043.8,334.8z M1056.3,366c0.1,0.9,0.2,1.7,0.3,2.5C1056.5,367.5,1056.4,366.8,1056.3,366
		c-0.4-5.9,1.3-13.6-6.1-21.6c-0.5,4.6,0.7,7.4,2.1,10.4C1053.7,357.8,1055.5,360.9,1056.3,366z M1052.7,508l-0.4-1l-2.7,12l0.4,1.1
		L1052.7,508z M1020.2,621.3l0.2,5.5l4.2-10.3L1020.2,621.3z M1020.3,648.1c-1.2,2.1-2.2,3.7-3.2,5.2c-2.3,2.9-4.2,3.7-6,5.2
		c-1.9,1.5-3.6,3.9-6.3,9.7c1.3-1.1,2.4-2.8,3.4-4.6c1-1.8,2-3.6,3.2-4.7c1.7,1.8,2.3,0,5.7-5.6
		C1018.2,652,1019.2,650.5,1020.3,648.1z M1033.7,615.5c-1.8-9.4-11.4,16.6-16.8,27.6C1020.7,639.1,1028.3,616.8,1033.7,615.5z
		 M1042.6,636.9c-1.3,0-2,0.9-2.5,2.4c-0.3,0.8-0.5,1.7-0.8,2.7c-0.3,1-0.7,2.1-1.1,3.2l-2.9,5.2c1.4-1.7,2.2-3.4,2.9-5.2
		C1039.9,642.5,1041.2,639.7,1042.6,636.9z M1052.4,601.5c0.8-3.1,1.8-5,3.7-9c-2.9,0.4-3.5,3.2-4.2,7.5c-0.4,2.1-0.7,4.6-1.5,7.2
		c-0.7,2.7-2,5.4-3.9,8.1c1.2,0.4,3.4-2.8,5.6-6.7c2.1-3.9,4.2-8.3,5.8-10.2C1059.7,592.3,1054.6,599.9,1052.4,601.5z M1069.2,493.5
		c-3.2,1.6-2.9-2.5-2.3-8.1c0.7-5.5,2.3-12.5,2.1-16.3c-0.2,4.3-2.1,9.5-3.3,15.5c-0.3,1.5-0.6,3.1-0.8,4.7
		c-0.2,1.7-0.5,3.4-0.7,5.1c-0.3,3.6-0.3,7.4,0.2,11.6l2.2-12.6l0.1,3.1L1069.2,493.5z M712.3,139.4c-2.2-1.5-4.3-3.1-6.6-4.4
		c2.1,0.1,4.2,0.4,6.2,0.7L712.3,139.4z M732.6,144.9c-1.5,0.1-5.5-0.4-8.7-1c-3.1-0.5-5.5-1.2-3.5-2.2
		C724.5,142.5,728.5,143.8,732.6,144.9z M746.4,146.2c2,0.4,4.3,0.7,8,0.8C751.6,146.6,748.9,146.3,746.4,146.2z M786.4,152
		c1.2,0.5,2.4,0.8,11.2,2.2c-3.7-1.1-7.3-2.3-11.1-3.2l-11.2-2.7C784.1,150.6,785.2,151.5,786.4,152z"/>
</g>
</svg>
