<?xml version="1.0" encoding="utf-8"?>
<!-- Generator: Adobe Illustrator 26.0.2, SVG Export Plug-In . SVG Version: 6.00 Build 0)  -->
<svg version="1.1" id="Layer_1" xmlns="http://www.w3.org/2000/svg" xmlns:xlink="http://www.w3.org/1999/xlink" x="0px" y="0px"
	 viewBox="0 0 40 15" style="enable-background:new 0 0 40 15;" xml:space="preserve">
<style type="text/css">
	.st0{enable-background:new    ;}
	.st1{fill:#FFFFFF;}
</style>
<path d="M32.5,15h-25C3.4,15,0,11.6,0,7.5l0,0C0,3.4,3.4,0,7.5,0h25C36.6,0,40,3.4,40,7.5l0,0C40,11.6,36.6,15,32.5,15z"/>
<g class="st0">
	<path class="st1" d="M7.66,6.44C7.58,6.29,7.47,6.19,7.33,6.11C7.18,6.04,7.01,6,6.82,6C6.48,6,6.21,6.11,6.01,6.33
		s-0.3,0.52-0.3,0.88c0,0.39,0.11,0.7,0.32,0.92C6.24,8.36,6.53,8.47,6.9,8.47c0.26,0,0.47-0.06,0.65-0.19s0.31-0.32,0.39-0.56H6.62
		V6.95h2.26v0.97C8.8,8.17,8.67,8.41,8.49,8.64c-0.18,0.22-0.42,0.4-0.7,0.54C7.5,9.32,7.18,9.38,6.82,9.38
		c-0.42,0-0.8-0.09-1.13-0.28C5.37,8.92,5.11,8.67,4.92,8.34c-0.18-0.33-0.28-0.7-0.28-1.12s0.09-0.8,0.28-1.13
		C5.11,5.76,5.37,5.5,5.69,5.32s0.7-0.28,1.12-0.28c0.51,0,0.94,0.12,1.29,0.37C8.46,5.66,8.69,6,8.81,6.44H7.66z"/>
	<path class="st1" d="M12.64,7.91h-2.35c0.02,0.21,0.08,0.37,0.2,0.48c0.12,0.11,0.27,0.17,0.44,0.17c0.26,0,0.44-0.11,0.54-0.33
		h1.11c-0.06,0.22-0.16,0.42-0.31,0.6c-0.15,0.18-0.33,0.32-0.56,0.42c-0.22,0.1-0.47,0.15-0.75,0.15c-0.33,0-0.63-0.07-0.89-0.21
		C9.82,9.05,9.61,8.85,9.47,8.58C9.32,8.32,9.25,8.01,9.25,7.66S9.32,7,9.47,6.73c0.14-0.26,0.35-0.47,0.6-0.61s0.56-0.21,0.89-0.21
		c0.33,0,0.62,0.07,0.88,0.21c0.26,0.14,0.45,0.33,0.6,0.59c0.14,0.26,0.22,0.55,0.22,0.89C12.65,7.7,12.65,7.8,12.64,7.91z
		 M11.59,7.33c0-0.18-0.06-0.32-0.18-0.43c-0.12-0.1-0.27-0.16-0.46-0.16c-0.17,0-0.32,0.05-0.44,0.15
		c-0.12,0.1-0.19,0.25-0.22,0.43H11.59z"/>
	<path class="st1" d="M15.09,8.47v0.88h-0.53c-0.38,0-0.67-0.09-0.88-0.28c-0.21-0.18-0.32-0.49-0.32-0.9V6.83h-0.41V5.96h0.41V5.14
		h1.04v0.83h0.68v0.86H14.4v1.36c0,0.1,0.02,0.17,0.07,0.22c0.05,0.04,0.13,0.07,0.24,0.07H15.09z"/>
	<path class="st1" d="M20,10.08l-0.55-0.74c-0.16,0.03-0.32,0.05-0.47,0.05c-0.4,0-0.77-0.09-1.1-0.28c-0.33-0.19-0.6-0.45-0.8-0.78
		c-0.2-0.33-0.29-0.71-0.29-1.13c0-0.42,0.1-0.79,0.29-1.12c0.2-0.33,0.46-0.59,0.8-0.78c0.33-0.19,0.7-0.28,1.1-0.28
		s0.77,0.09,1.1,0.28c0.33,0.19,0.6,0.45,0.79,0.78s0.29,0.71,0.29,1.12c0,0.36-0.07,0.7-0.22,1s-0.35,0.55-0.62,0.75l0.94,1.12H20z
		 M18.15,8.11c0.2,0.22,0.48,0.34,0.82,0.34c0.34,0,0.61-0.11,0.82-0.34s0.31-0.53,0.31-0.9c0-0.38-0.1-0.68-0.31-0.9
		c-0.2-0.22-0.48-0.34-0.82-0.34c-0.34,0-0.62,0.11-0.82,0.33c-0.2,0.22-0.31,0.53-0.31,0.91C17.84,7.59,17.95,7.89,18.15,8.11z"/>
	<path class="st1" d="M25.1,5.96v3.39h-1.04V8.89c-0.11,0.15-0.25,0.27-0.43,0.36c-0.18,0.09-0.38,0.14-0.6,0.14
		c-0.26,0-0.49-0.06-0.69-0.17s-0.35-0.28-0.46-0.5c-0.11-0.22-0.16-0.48-0.16-0.77V5.96h1.03V7.8c0,0.23,0.06,0.4,0.18,0.53
		c0.12,0.13,0.28,0.19,0.47,0.19c0.2,0,0.36-0.06,0.48-0.19c0.12-0.12,0.18-0.3,0.18-0.53V5.96H25.1z"/>
	<path class="st1" d="M26.49,9.19c-0.27-0.14-0.47-0.34-0.63-0.61c-0.15-0.26-0.23-0.57-0.23-0.92c0-0.35,0.08-0.66,0.23-0.92
		c0.15-0.26,0.36-0.47,0.63-0.61s0.57-0.21,0.9-0.21s0.63,0.07,0.9,0.21c0.27,0.14,0.48,0.35,0.63,0.61
		c0.15,0.27,0.23,0.57,0.23,0.92s-0.08,0.66-0.23,0.92c-0.16,0.27-0.37,0.47-0.64,0.61s-0.57,0.21-0.9,0.21
		C27.06,9.4,26.76,9.33,26.49,9.19z M27.9,8.28c0.14-0.15,0.21-0.35,0.21-0.63s-0.07-0.48-0.2-0.63c-0.14-0.15-0.3-0.22-0.5-0.22
		c-0.2,0-0.37,0.07-0.5,0.22c-0.13,0.14-0.2,0.35-0.2,0.63c0,0.27,0.07,0.48,0.2,0.63c0.13,0.15,0.3,0.22,0.5,0.22
		C27.59,8.5,27.76,8.43,27.9,8.28z"/>
	<path class="st1" d="M31.61,8.47v0.88h-0.53c-0.38,0-0.67-0.09-0.88-0.28c-0.21-0.18-0.32-0.49-0.32-0.9V6.83h-0.41V5.96h0.41V5.14
		h1.04v0.83h0.68v0.86h-0.68v1.36c0,0.1,0.02,0.17,0.07,0.22s0.13,0.07,0.24,0.07H31.61z"/>
	<path class="st1" d="M35.36,7.91h-2.35c0.02,0.21,0.08,0.37,0.2,0.48c0.12,0.11,0.27,0.17,0.44,0.17c0.26,0,0.44-0.11,0.54-0.33
		h1.11c-0.06,0.22-0.16,0.42-0.31,0.6c-0.15,0.18-0.33,0.32-0.56,0.42c-0.22,0.1-0.47,0.15-0.75,0.15c-0.33,0-0.63-0.07-0.89-0.21
		c-0.26-0.14-0.46-0.34-0.61-0.61c-0.15-0.26-0.22-0.57-0.22-0.92S32.05,7,32.19,6.73c0.14-0.26,0.35-0.47,0.6-0.61
		c0.26-0.14,0.56-0.21,0.89-0.21c0.33,0,0.62,0.07,0.88,0.21c0.25,0.14,0.45,0.33,0.6,0.59c0.14,0.26,0.22,0.55,0.22,0.89
		C35.38,7.7,35.38,7.8,35.36,7.91z M34.32,7.33c0-0.18-0.06-0.32-0.18-0.43c-0.12-0.1-0.27-0.16-0.46-0.16
		c-0.17,0-0.32,0.05-0.44,0.15c-0.12,0.1-0.19,0.25-0.22,0.43H34.32z"/>
</g>
<path class="st1" d="M32.5,13.5h-25c-3.25,0-6-2.75-6-6c0-3.25,2.75-6,6-6h25c3.25,0,6,2.75,6,6C38.5,10.75,35.75,13.5,32.5,13.5z
	 M7.5,2.5c-2.71,0-5,2.29-5,5c0,2.71,2.29,5,5,5h25c2.71,0,5-2.29,5-5c0-2.71-2.29-5-5-5H7.5z"/>
</svg>
