<?xml version="1.0" encoding="utf-8"?>
<!-- Generator: Adobe Illustrator 26.0.2, SVG Export Plug-In . SVG Version: 6.00 Build 0)  -->
<svg version="1.1" id="Layer_1" xmlns="http://www.w3.org/2000/svg" xmlns:xlink="http://www.w3.org/1999/xlink" x="0px" y="0px"
	 viewBox="0 0 1440 1156.3" style="enable-background:new 0 0 1440 1156.3;" xml:space="preserve">
<g>
	<path d="M166.4,597.46l66.41-91.15v138.88h-27.27v-56.22L166.4,643l-39.22-54.04v56.22H99.9V506.31L166.4,597.46z"/>
	<path d="M340.74,582.4c-0.28,6.68-0.77,11.87-1.47,15.57c-0.7,3.7-2.62,8.53-5.77,14.48l4.54,2.86c1.51,1.01,3.14,2.03,4.88,3.07
		s3.56,1.98,5.47,2.82c2.86,1.23,5.22,2.05,7.07,2.44l-0.08,16.41c-2.64-0.34-5.33-1.01-8.08-2.02c-3.48-1.12-6.76-2.61-9.85-4.46
		c-1.18-0.67-1.52-0.86-1.01-0.55s0.31,0.18-0.59-0.38c-4.38-2.58-7.88-4.99-10.52-7.24c-3.54,4.21-6.62,7.11-9.26,8.71
		c-2.64,1.6-6.71,3.16-12.2,4.67c-6.06,1.68-11.67,2.52-16.83,2.52c-5.5,0-10.63-0.98-15.4-2.95c-4.99-1.96-9.34-4.77-13.05-8.42
		c-3.87-3.7-6.73-7.8-8.58-12.29c-1.85-4.38-2.78-9.29-2.78-14.73h-0.08c0.17-6.57,1.92-11.99,5.26-16.29
		c3.34-4.29,6.89-8.26,10.65-11.91l0.42-0.42c-0.11,0.11,0.34-0.25,1.35-1.09c-0.28,0.28-0.03,0.08,0.76-0.59l3.79-3.2l-2.95-3.96
		c-1.91-2.58-3.65-6.12-5.22-10.6c-1.52-4.26-2.36-8.02-2.53-11.28c0-4.04,0.84-7.74,2.53-11.11c1.46-2.81,3.59-5.58,6.4-8.33
		c3.14-3.14,7.1-5.75,11.87-7.83c4.6-2.02,8.75-3.03,12.46-3.03s7.38,0.65,11.03,1.94c3.48,1.29,6.76,3.14,9.85,5.56
		c2.92,2.41,5.41,5.25,7.49,8.5c1.07,1.85,1.96,3.62,2.69,5.3l-17.17,3.62h-0.08c-1.12-1.68-2.3-3.06-3.54-4.12
		c-1.46-1.18-3.09-2.08-4.88-2.69c-1.8-0.62-3.59-0.93-5.39-0.93c-3.98,0-7.38,1.07-10.18,3.2c-6,4.6-7.63,9.99-4.88,16.16
		c1.18,2.75,3.44,6.56,6.78,11.45c3.34,4.88,5.99,8.53,7.95,10.94c3.2,4.04,7.1,8.52,11.7,13.42c4.6,4.91,8.84,9.13,12.71,12.67
		l5.22,4.71c2.08-2.69,3.3-5.37,3.66-8.04c0.36-2.67,0.66-6.61,0.88-11.83v-0.5L340.74,582.4z M306.23,621.66
		c2.3-1.15,4.63-3.41,6.99-6.78c-1.01-0.84-2.32-1.92-3.91-3.24c-1.6-1.32-2.9-2.4-3.91-3.24c-5.72-4.88-10.37-9.37-13.93-13.47
		c-3.56-4.1-7.7-9.26-12.42-15.49l-3.53,2.61l-0.51,0.34c-2.92,2.13-5.76,4.69-8.54,7.66c-2.78,2.97-4.08,7.41-3.91,13.3
		c0,2.86,0.73,5.78,2.19,8.75c1.35,2.97,3.17,5.56,5.47,7.74c2.13,2.02,4.88,3.48,8.25,4.38c2.08,0.56,5.26,0.93,9.55,1.09
		c4.29,0.17,7.45-0.06,9.47-0.67C301.01,623.81,303.93,622.81,306.23,621.66z"/>
	<path d="M436.31,597.46l66.41-91.15v138.88h-27.27v-56.22L436.31,643l-39.22-54.04v56.22h-27.27V506.31L436.31,597.46z"/>
	<path d="M594.2,589.89v55.3h-14.31V521.97h25.84c9.03,0,15.68,0.48,19.95,1.43c4.26,0.96,7.97,2.53,11.11,4.71
		c3.93,2.81,7,6.65,9.22,11.53c2.22,4.88,3.32,10.3,3.32,16.24c0,5.95-1.11,11.36-3.32,16.24c-2.22,4.88-5.29,8.73-9.22,11.53
		c-3.14,2.24-6.83,3.84-11.07,4.8c-4.24,0.96-10.9,1.43-19.99,1.43h-4.12H594.2z M594.2,576.59h7.41c12.57,0,21.03-1.47,25.38-4.42
		c4.35-2.95,6.52-8.09,6.52-15.44c0-7.86-2.23-13.38-6.69-16.58s-12.86-4.8-25.21-4.8h-7.41V576.59z"/>
	<path d="M698.69,517.09l56.05,128.1h-15.91l-15.99-37.79H674.7l-15.99,37.79H642.8L698.69,517.09z M698.69,549.49l-19.61,45.36
		h39.22L698.69,549.49z"/>
	<path d="M769.34,645.19V521.97h14.64v123.22H769.34z"/>
	<path d="M815.5,645.19v-128.1l90.14,98.47v-93.59h13.97v128.02l-90.14-97.38v92.58H815.5z"/>
	<path d="M972.34,645.19V535.94H937.5v-13.97h84.33v13.97h-34.68v109.25H972.34z"/>
	<path d="M1040.05,645.19V521.97h14.64v123.22H1040.05z"/>
	<path d="M1086.22,645.19v-128.1l90.14,98.47v-93.59h13.97v128.02l-90.14-97.38v92.58H1086.22z"/>
	<path d="M1289.26,581.56h50.83v4.12c0,19.42-5.5,34.73-16.5,45.95c-11,11.22-26.01,16.83-45.03,16.83
		c-5.78,0-11.29-0.62-16.54-1.85c-5.25-1.23-10.09-3.03-14.52-5.39c-10.1-5.55-17.9-13.23-23.4-23.02
		c-5.5-9.79-8.25-20.92-8.25-33.37c0-10.27,1.64-19.54,4.92-27.82c3.28-8.28,8.23-15.56,14.86-21.84
		c5.55-5.27,12.01-9.26,19.36-11.95c7.35-2.69,15.49-4.04,24.41-4.04c11.84,0,22.11,2.15,30.8,6.44c8.7,4.29,15.91,10.76,21.63,19.4
		l-12.29,9.85c-4.43-7.46-9.96-13.06-16.58-16.79c-6.62-3.73-14.31-5.6-23.06-5.6c-14.31,0-25.92,4.83-34.84,14.48
		c-8.92,9.65-13.38,22.28-13.38,37.87c0,14.7,4.53,26.76,13.59,36.19c9.06,9.43,20.61,14.14,34.63,14.14
		c12.34,0,22.63-3.75,30.85-11.24c8.22-7.49,12.78-17.24,13.68-29.25h-35.18V581.56z"/>
</g>
</svg>
